<svg width="41" height="85" viewBox="0 0 41 85" fill="none" xmlns="http://www.w3.org/2000/svg">
<path d="M15.2722 27.5344C15.2476 27.4506 15.1992 27.3758 15.133 27.3188C15.0668 27.2619 14.9855 27.2253 14.8989 27.2135C14.8124 27.2017 14.7243 27.2152 14.6452 27.2523C14.5662 27.2894 14.4996 27.3486 14.4534 27.4228C13.7152 28.7316 13.9075 30.4375 13.374 31.8642C13.0868 32.6439 12.6411 33.3557 12.0652 33.9547C11.7123 34.3224 11.2909 34.6174 10.8246 34.8231C10.6404 34.9477 10.4262 35.0206 10.2043 35.034C10.0833 35.0887 9.94996 35.1101 9.81799 35.0959C9.68601 35.0817 9.56023 35.0325 9.45367 34.9534C9.65017 34.8316 9.80209 34.6496 9.88682 34.4345C9.97154 34.2194 9.98455 33.9827 9.9239 33.7597C9.86325 33.5366 9.7322 33.3391 9.55023 33.1965C9.36826 33.0539 9.14511 32.9739 8.914 32.9684C8.58717 32.9565 8.26283 33.0295 7.97263 33.1803C7.68243 33.3311 7.43628 33.5545 7.2582 33.8289C7.08011 34.1032 6.97619 34.419 6.95654 34.7454C6.9369 35.0719 7.00221 35.3978 7.14611 35.6915C7.87187 37.2671 9.70801 37.1865 11.0913 36.5786C12.5783 35.8855 13.7576 34.6687 14.4038 33.1607C15.1171 31.6347 15.8863 29.1535 15.2722 27.5344Z" fill="#F2EAB6"/>
<path d="M19.1305 36.256C18.7984 36.1579 18.5111 35.9466 18.3184 35.6588C18.1258 35.371 18.04 35.0248 18.076 34.6804C18.076 34.3082 18.076 33.9422 18.1132 33.57C18.1504 32.8256 18.2186 32.0875 18.2869 31.3493C18.4789 30.0864 18.5039 28.8038 18.3613 27.5344C18.3351 27.4464 18.2841 27.3678 18.2144 27.308C18.1446 27.2482 18.0592 27.2098 17.9682 27.1974C17.8772 27.185 17.7845 27.199 17.7013 27.2379C17.6181 27.2767 17.5479 27.3388 17.4991 27.4165C16.6927 28.9797 16.5004 30.7352 16.2584 32.4597C16.0537 34.0849 15.7002 36.0016 16.5934 37.4966C17.9891 39.8041 21.0907 39.2024 21.4194 36.5971C21.5745 35.2697 19.3724 34.9719 19.1305 36.256Z" fill="#F2EAB6"/>
<path d="M21.4257 82.432C21.2214 82.4324 21.0222 82.3677 20.8571 82.2472C20.692 82.1268 20.5696 81.9568 20.5077 81.7621C20.3836 81.3775 17.5178 72.1907 21.7483 53.296C23.6092 45.0645 27.1574 36.864 30.3086 29.6311C34.3716 20.3265 37.8764 12.2624 36.2574 7.58526C33.7761 0.383445 28.6834 1.64268 24.1985 2.74683L22.9083 3.06319C22.784 3.09129 22.6555 3.09465 22.53 3.07308C22.4045 3.0515 22.2844 3.00542 22.1767 2.93745C22.069 2.86948 21.9757 2.78096 21.9022 2.67694C21.8287 2.57293 21.7764 2.45545 21.7483 2.33122C21.7202 2.207 21.7168 2.07845 21.7384 1.95292C21.76 1.8274 21.8061 1.70735 21.874 1.59964C21.942 1.49192 22.0305 1.39865 22.1346 1.32515C22.2386 1.25164 22.356 1.19934 22.4803 1.17124C22.8773 1.0844 23.2991 0.978944 23.7209 0.873491C27.9452 -0.168632 35.0106 -1.91791 38.0749 6.95254C39.9358 12.343 36.2884 20.711 32.0703 30.4065C28.9687 37.5587 25.4205 45.6662 23.6278 53.7178C19.54 72.017 22.319 81.0798 22.3438 81.1666C22.3863 81.2887 22.404 81.4181 22.3957 81.5471C22.3874 81.6761 22.3534 81.8022 22.2956 81.9179C22.2377 82.0335 22.1573 82.1364 22.0591 82.2205C21.9608 82.3045 21.8467 82.368 21.7235 82.4072C21.626 82.4304 21.5257 82.4387 21.4257 82.432Z" fill="#94A60F"/>
<path d="M15.9544 83.4121C15.6257 79.6282 14.0067 67.8236 6.27759 57.7001C6.27759 57.7001 12.5489 57.2969 17.1765 69.0518C21.804 80.8067 22.2816 84.6465 22.2816 84.6465H17.3191C16.9775 84.6524 16.6463 84.5281 16.3929 84.2989C16.1395 84.0696 15.9827 83.7526 15.9544 83.4121Z" fill="#94A60F"/>
<path d="M19.8127 84.6465C19.8127 69.728 24.645 45.3994 40.0039 38.9296C40.0039 38.9296 32.2748 45.8274 29.4586 61.6454C27.3743 73.4809 27.2689 80.4842 27.3495 83.257C27.3537 83.438 27.3216 83.618 27.2552 83.7864C27.1887 83.9548 27.0893 84.1083 26.9628 84.2377C26.8362 84.3672 26.685 84.47 26.5182 84.5402C26.3513 84.6104 26.1721 84.6466 25.991 84.6465H19.8127Z" fill="#94A60F"/>
<path d="M0 25.2455C5.3781 19.8736 8.51688 21.5236 11.0974 11.5986C13.6779 1.67363 19.2607 1.05331 25.0606 2.56687C30.8605 4.08043 31.0714 8.50945 30.4263 17.0884C29.7811 25.6673 35.7609 28.347 35.7609 28.347C35.7609 28.347 30.3208 32.9621 25.9166 31.4486C21.5124 29.935 20.9541 28.347 20.9541 28.347C20.9541 28.347 20.4144 32.8133 15.7931 31.7587C11.1718 30.7042 11.2835 27.3793 11.2835 27.3793C7.31347 30.5491 2.61771 28.5331 0 25.2455Z" fill="#7C5ED4"/>
<path d="M19.9305 5.67471C17.0646 4.39067 16.2396 8.81349 15.6503 10.6372C13.9072 16.0401 11.6865 21.5237 10.6196 27.1127C10.5451 27.4911 11.1034 27.795 11.2895 27.3918C12.7783 24.2034 13.7211 20.7607 14.8005 17.4172C15.6441 14.8119 16.9157 7.14485 19.8312 6.41909C19.9044 6.39315 19.969 6.34751 20.0179 6.28719C20.0669 6.22688 20.0982 6.15423 20.1084 6.07725C20.1187 6.00027 20.1075 5.92195 20.0761 5.85093C20.0447 5.7799 19.9943 5.71893 19.9305 5.67471Z" fill="#947AF7"/>
<path d="M24.2356 6.48105C24.2057 6.38196 24.1414 6.29682 24.0542 6.24098C23.967 6.18514 23.8628 6.16226 23.7603 6.17648C23.6578 6.1907 23.5637 6.24108 23.495 6.31853C23.4263 6.39598 23.3876 6.49542 23.3858 6.59891C23.3486 9.98581 23.6587 13.3293 23.3858 16.7224C23.1128 20.1155 21.9467 23.3163 21.7109 26.6722C21.7153 26.7693 21.7503 26.8626 21.8111 26.9386C21.8718 27.0145 21.9552 27.0692 22.049 27.0947C22.1429 27.1203 22.2424 27.1153 22.3333 27.0806C22.4241 27.0459 22.5016 26.9833 22.5546 26.9017C25.6251 21.536 25.867 12.3058 24.2356 6.48105Z" fill="#947AF7"/>
</svg>
