<svg width="375" height="252" viewBox="0 0 375 252" fill="none" xmlns="http://www.w3.org/2000/svg">
<path d="M338.319 23.2205C338.953 26.8 340.017 30.2904 341.487 33.6161C343.143 37.0335 342.675 46.1769 340.24 56.8139C337.805 67.451 333.381 94.1869 329.593 96.6614C325.804 99.1358 322.787 107.615 322.787 107.615C322.787 107.615 323.006 98.6303 320.344 94.979C317.683 91.3278 323.036 64.7578 324.549 53.9547C326.061 43.1517 328.867 34.4308 331.627 31.8206C334.197 29.2333 336.444 26.3457 338.319 23.2205Z" fill="#3F6314"/>
<path d="M337.449 27.9731C333.774 52.6496 329.222 77.4769 323.883 101.852C327.543 77.1676 332.111 52.3478 337.449 27.9731Z" fill="#5C7C2F"/>
<g style="mix-blend-mode:multiply" opacity="0.3">
<path d="M328.927 69.3219C325.381 66.3571 325.789 60.0276 325.388 55.9086C325.267 54.6186 325.071 53.3437 324.851 52.0687C324.753 52.6949 324.655 53.321 324.572 53.9547C323.059 64.7577 317.705 91.3277 320.367 94.979C323.029 98.6303 322.81 107.615 322.81 107.615C322.81 107.615 325.834 99.1358 329.615 96.6614C332.64 94.6622 336.156 76.8206 338.69 64.4334C336.829 67.7301 333.094 72.7921 328.927 69.3219Z" fill="#3F6314"/>
</g>
<path d="M376.113 0C376.113 0 375.297 13.9866 374.208 25.0989C373.119 36.2112 367.992 51.7594 359.379 63.1886C350.766 74.6178 337.154 100.071 337.154 100.071C337.154 100.071 344.331 72.1207 345.715 57.8927C347.098 43.6647 353.828 28.7351 360.543 19.803C367.258 10.8709 376.113 0 376.113 0Z" fill="#3F6314"/>
<path d="M373.542 6.68396C363.263 35.9396 352.016 64.8307 339.801 93.3571C350.07 64.0913 361.317 35.2003 373.542 6.68396Z" fill="#5C7C2F"/>
<g style="mix-blend-mode:multiply" opacity="0.3">
<path d="M366.124 49.2473C363.53 52.2121 359.318 53.8869 356.604 49.9564C353.768 45.8223 355.091 38.9875 354.932 34.2875C354.864 32.4845 354.849 30.689 354.857 28.8936C350.388 37.3127 346.69 47.7536 345.715 57.8927C344.331 72.1207 337.154 100.071 337.154 100.071C337.154 100.071 350.766 74.6178 359.379 63.1886C363.687 57.3136 367.135 50.8565 369.618 44.0117C368.594 45.8464 367.426 47.597 366.124 49.2473Z" fill="#3F6314"/>
</g>
<path d="M326.069 243.973C322.424 243.837 318.775 244.138 315.202 244.871C311.505 245.761 302.627 243.362 292.706 238.753C282.784 234.143 257.49 224.163 255.864 219.945C254.238 215.728 246.555 211.021 246.555 211.021C246.555 211.021 255.32 213.133 259.464 211.308C263.608 209.482 288.539 220.315 298.785 224.072C309.032 227.829 317.032 232.416 319.006 235.66C321.018 238.703 323.389 241.494 326.069 243.973Z" fill="#3F6314"/>
<path d="M321.592 242.117C298.15 233.321 274.761 223.635 251.977 213.269C275.419 222.058 298.808 231.759 321.592 242.117Z" fill="#5C7C2F"/>
<g style="mix-blend-mode:multiply" opacity="0.3">
<path d="M282.8 225.083C286.46 222.246 292.577 223.982 296.706 224.464C297.999 224.615 299.292 224.691 300.585 224.743C299.995 224.517 299.406 224.291 298.793 224.072C288.516 220.3 263.585 209.474 259.471 211.308C255.358 213.141 246.563 211.021 246.563 211.021C246.563 211.021 254.246 215.721 255.872 219.945C257.187 223.355 273.96 230.507 285.582 235.584C282.724 233.117 278.542 228.402 282.8 225.083Z" fill="#3F6314"/>
</g>
<path d="M18.9728 126.709C18.9728 126.709 30.2173 126.596 39.1706 126.852C48.1239 127.109 60.8657 130.338 70.4844 136.577C80.1031 142.816 101.239 152.261 101.239 152.261C101.239 152.261 78.4697 148.074 66.9984 147.734C55.527 147.395 43.2087 142.868 35.6846 138.01C28.1605 133.152 18.9728 126.709 18.9728 126.709Z" fill="#3F6314"/>
<path d="M24.4626 128.414C48.3658 134.977 72.3067 142.408 95.7183 150.548C71.8152 143.985 47.8743 136.547 24.4626 128.414Z" fill="#5C7C2F"/>
<g style="mix-blend-mode:multiply" opacity="0.3">
<path d="M58.9677 131.967C61.4858 133.868 63.0586 137.15 60.0641 139.511C56.9033 142.001 51.3604 141.314 47.6097 141.707C46.1654 141.857 44.7211 141.971 43.2843 142.069C50.2715 145.162 58.8542 147.531 67.0135 147.757C78.4849 148.074 101.254 152.283 101.254 152.283C101.254 152.283 80.1409 142.793 70.4844 136.577C65.544 133.465 60.1842 131.072 54.5666 129.47C56.0993 130.182 57.5711 131.017 58.9677 131.967Z" fill="#3F6314"/>
</g>
<path d="M48.88 91.7502C48.88 91.7502 62.1209 96.4275 72.5185 100.554C82.9161 104.681 96.4594 113.922 105.072 125.351C113.685 136.78 134.413 156.893 134.413 156.893C134.413 156.893 109.458 142.25 96.1721 136.977C82.8858 131.703 70.3558 121.096 63.656 112.179C56.9561 103.262 48.88 91.7502 48.88 91.7502Z" fill="#3F6314"/>
<path d="M54.5894 96.1031C79.9066 114.083 104.609 132.89 128.696 152.525C103.379 134.545 78.6765 115.738 54.5894 96.1031Z" fill="#5C7C2F"/>
<g style="mix-blend-mode:multiply" opacity="0.3">
<path d="M93.5179 115.016C95.6579 118.32 96.0889 122.839 91.5594 124.333C86.7954 125.902 80.5795 122.726 76.0121 121.587C74.2502 121.142 72.5185 120.659 70.7944 120.153C77.6531 126.777 86.6744 133.22 96.1721 136.977C109.496 142.257 134.413 156.893 134.413 156.893C134.413 156.893 113.685 136.758 105.095 125.351C100.635 119.59 95.3743 114.491 89.4723 110.21C90.9492 111.7 92.3022 113.307 93.5179 115.016Z" fill="#3F6314"/>
</g>
<path d="M379.501 132.986C377.326 134.112 375.295 135.495 373.452 137.105C371.591 138.855 365.61 140.394 358.29 140.982C350.97 141.571 332.89 144.121 330.538 142.197C328.186 140.273 322.137 140.07 322.137 140.07C322.137 140.07 327.952 138.402 329.759 135.966C331.566 133.529 349.722 131.605 356.982 130.391C364.241 129.176 370.404 129.221 372.635 130.459C374.812 131.576 377.118 132.425 379.501 132.986Z" fill="#3F6314"/>
<path d="M376.272 133.363C359.636 135.981 342.796 138.063 326.054 139.564C342.69 136.946 359.53 134.864 376.272 133.363Z" fill="#5C7C2F"/>
<g style="mix-blend-mode:multiply" opacity="0.3">
<path d="M347.983 136.252C349.178 133.386 353.322 132.375 355.893 131.288C356.694 130.949 357.481 130.572 358.252 130.172L356.982 130.368C349.73 131.583 331.581 133.506 329.759 135.943C327.937 138.38 322.137 140.047 322.137 140.047C322.137 140.047 328.186 140.251 330.538 142.174C332.436 143.728 344.603 142.363 353.072 141.473C350.592 140.975 346.584 139.609 347.983 136.252Z" fill="#3F6314"/>
</g>
<path d="M104.082 252C105.008 248.931 105.561 245.763 105.73 242.562C105.791 239.22 109.814 232.204 115.969 224.796C122.125 217.388 136.288 198.113 140.25 197.638C144.213 197.163 149.952 191.708 149.952 191.708C149.952 191.708 146.171 198.686 146.829 202.617C147.487 206.547 132.651 225.332 127.168 233.238C121.686 241.144 115.977 246.893 112.763 247.851C109.712 248.88 106.797 250.273 104.082 252Z" fill="#3F6314"/>
<path d="M106.66 248.613C119.402 230.65 132.9 212.922 146.822 195.85C134.08 213.812 120.582 231.541 106.66 248.613Z" fill="#5C7C2F"/>
<g style="mix-blend-mode:multiply" opacity="0.3">
<path d="M129.853 219.44C131.464 223.212 128.62 228.003 127.282 231.405C126.866 232.469 126.526 233.555 126.178 234.641C126.503 234.189 126.828 233.736 127.153 233.268C132.651 225.362 147.465 206.585 146.814 202.647C146.164 198.709 149.937 191.738 149.937 191.738C149.937 191.738 144.205 197.223 140.235 197.668C137.029 198.023 127.168 210.681 120.257 219.44C123.017 217.569 127.97 215.057 129.853 219.44Z" fill="#3F6314"/>
</g>
<path d="M273.831 252C273.831 252 264.757 248.341 257.702 245.143C250.647 241.944 241.497 235.101 235.878 226.894C230.26 218.686 216.512 204.058 216.512 204.058C216.512 204.058 233.345 215.019 242.427 219.101C251.509 223.182 259.857 230.945 264.25 237.35C268.644 243.754 273.831 252 273.831 252Z" fill="#3F6314"/>
<path d="M270.005 248.801C253.074 235.554 236.385 221.643 220.354 207.309C237.292 220.557 253.974 234.513 270.005 248.839V248.801Z" fill="#5C7C2F"/>
<g style="mix-blend-mode:multiply" opacity="0.3">
<path d="M243.576 234.438C242.192 232.069 242.064 228.923 245.232 228.025C248.59 227.09 252.794 229.489 255.94 230.424C257.15 230.786 258.337 231.179 259.524 231.586C254.664 226.387 248.863 222.15 242.427 219.101C233.352 215.019 216.512 204.058 216.512 204.058C216.512 204.058 230.267 218.686 235.878 226.894C238.796 231.032 242.286 234.738 246.245 237.9C245.261 236.822 244.369 235.663 243.576 234.438Z" fill="#3F6314"/>
</g>
<path d="M43.5035 240.601C43.5035 240.601 48.3583 235.252 51.0049 229.783C53.0164 225.649 62.068 219.221 74.0233 213.503C85.9787 207.785 114.744 191.889 119.947 193.609C125.149 195.329 135.456 191.784 135.456 191.784C135.456 191.784 126.745 198.332 125.27 203.605C123.796 208.878 94.4934 223.785 83.0825 230.492C71.6716 237.199 61.2362 241.091 56.699 240.435C50.6495 239.575 43.5035 240.601 43.5035 240.601Z" fill="#3F6314"/>
<path d="M48.6759 237.847C75.0165 222.699 101.851 208.453 129.18 195.111C102.849 210.269 76.0147 224.515 48.6759 237.847Z" fill="#5C7C2F"/>
<g style="mix-blend-mode:multiply" opacity="0.3">
<path d="M94.4178 214.793C94.2666 220.391 87.9448 224.766 84.3151 228.244C83.1808 229.33 82.1146 230.469 81.0786 231.639L83.0825 230.492C94.4934 223.785 123.803 208.871 125.27 203.605C126.737 198.339 135.456 191.784 135.456 191.784C135.456 191.784 125.149 195.337 119.947 193.609C115.742 192.221 96.1419 202.345 82.47 209.293C86.9467 208.531 94.5993 208.252 94.4178 214.793Z" fill="#3F6314"/>
</g>
<path d="M409.008 180.226C409.008 180.226 401.771 180.226 395.926 181.894C391.502 183.168 380.643 180.747 368.408 175.692C356.173 170.638 325.071 159.925 322.878 154.909C320.685 149.892 311.149 144.619 311.149 144.619C311.149 144.619 321.857 146.708 326.764 144.279C331.672 141.85 362.389 153.626 375.017 157.617C387.645 161.608 397.506 166.738 400.069 170.547C403.457 175.594 409.008 180.226 409.008 180.226Z" fill="#3F6314"/>
<path d="M403.502 178.25C374.601 168.825 346.042 158.432 317.826 147.07C346.738 156.485 375.297 166.878 403.502 178.25Z" fill="#5C7C2F"/>
<g style="mix-blend-mode:multiply" opacity="0.3">
<path d="M355.734 159.692C360.007 156.063 367.493 157.836 372.506 158.183C374.079 158.296 375.645 158.326 377.21 158.311L375.017 157.594C362.389 153.604 331.68 141.827 326.764 144.256C321.849 146.686 311.149 144.596 311.149 144.596C311.149 144.596 320.685 149.877 322.878 154.886C324.655 158.937 345.299 166.715 359.613 172.237C356.044 169.408 350.736 163.916 355.734 159.692Z" fill="#3F6314"/>
</g>
<path d="M-0.0151367 170.125C-0.0151367 170.125 58.6727 155.98 62.1738 154.848C65.675 153.717 82.7801 148.624 95.5899 150.601C108.4 152.578 145.113 150.888 150.194 150.601C155.276 150.314 208.315 147.87 226.222 150.601C244.128 153.332 277.786 140.477 287.609 134.14C297.432 127.803 353.775 81.8298 357.556 79.295C361.337 76.7602 378.079 74.7686 378.079 74.7686V96.0201C378.079 96.0201 360.203 99.2037 354.154 104.975C348.104 110.746 314.635 152.585 314.635 152.585C309.917 159.035 292.207 171.128 289.719 169.982C287.231 168.835 264.273 172.614 262.708 173.754C261.142 174.893 194.802 176.017 181.848 177.526C168.895 179.034 134.76 177.526 134.76 177.526C134.76 177.526 195.709 187.71 205.555 189.219C215.4 190.728 234.23 197.344 246.934 199.313C259.637 201.282 295.912 199.403 314.635 200.912C325.577 201.787 331.982 202.541 335.415 203.017C335.515 203.017 335.612 203.056 335.683 203.127C335.754 203.198 335.793 203.294 335.793 203.394C335.793 203.494 335.754 203.59 335.683 203.661C335.612 203.731 335.515 203.771 335.415 203.771C324.254 204.526 289.235 206.789 283.503 208.086C276.697 209.595 249.792 212.99 243.947 212.236C238.101 211.481 193.842 202.428 185.917 202.051C177.992 201.674 109.957 187.717 99.7111 187.717C89.4647 187.717 72.2841 187.717 62.1738 188.472C52.0636 189.226 33.4084 200.127 24.1829 204.262C14.9574 208.396 -0.0151367 212.288 -0.0151367 212.288V170.125Z" fill="#7A5F4C"/>
<g style="mix-blend-mode:multiply" opacity="0.35">
<path d="M359.931 96.7745C355.636 99.2641 350.501 101.052 347.129 104.779C343.756 108.505 340.444 112.7 337.049 116.593C333.653 120.485 330.288 124.416 326.628 128.052C323.603 131.07 320.072 133.521 316.798 136.267C313.017 139.421 310.68 142.831 307.95 146.829C305.935 149.733 303.301 152.157 300.237 153.928C293.061 158.236 284.758 158.854 276.644 159.812C267.691 160.883 259.312 164.12 250.321 165.048C230.539 167.085 210.788 169.393 191.021 171.717C180.744 172.931 170.528 174.629 160.259 175.881C154.535 176.583 148.765 176.854 143.131 177.827C154.089 178.174 172.956 178.582 181.848 177.526C194.802 176.017 261.142 174.885 262.708 173.754C264.273 172.622 287.231 168.85 289.719 169.982C292.207 171.113 309.916 159.035 314.635 152.585C314.635 152.585 348.104 110.754 354.154 104.975C360.203 99.1962 378.079 96.0201 378.079 96.0201V90.3998C371.698 91.4319 365.553 93.5906 359.931 96.7745Z" fill="#7A5F4C"/>
</g>
<g style="mix-blend-mode:multiply" opacity="0.35">
<path d="M335.43 202.972C332.406 202.557 327.112 201.923 318.409 201.176C307.913 201.87 297.507 203.605 287.065 204.948C274.534 206.547 261.959 206.796 249.338 206.608C243.574 206.645 237.822 206.089 232.173 204.948C226.585 203.703 221.155 201.832 215.537 200.701C204.784 198.536 193.705 198.619 182.907 196.657C172.109 194.696 162.399 189.038 151.51 188.057C145.725 187.529 139.895 187.68 134.118 186.925C128.711 186.209 123.357 185.047 118.026 183.908C106.403 181.418 95.2117 178.838 83.2942 180.49C72.7454 181.946 62.1965 183.206 51.625 184.526C40.6149 185.907 30.4517 188.381 20.5078 193.3C13.9441 196.529 6.73764 198.158 0 200.889V212.311C0 212.311 15.0179 208.433 24.1981 204.284C33.3782 200.135 52.056 189.196 62.1738 188.442C72.2917 187.687 89.4874 187.687 99.7111 187.687C109.935 187.687 177.962 201.644 185.917 202.021C193.872 202.398 238.094 211.451 243.947 212.205C249.799 212.96 276.667 209.565 283.503 208.056C289.235 206.789 324.254 204.458 335.415 203.741C335.517 203.743 335.616 203.704 335.69 203.634C335.764 203.563 335.806 203.466 335.808 203.364C335.81 203.262 335.772 203.163 335.701 203.09C335.63 203.016 335.533 202.974 335.43 202.972Z" fill="#7A5F4C"/>
</g>
<path d="M304.275 165.063C304.275 165.063 296.865 172.245 290.747 177.737C284.63 183.229 274.111 189.128 263.744 191.067C253.376 193.006 233.33 200.082 233.33 200.082C233.33 200.082 251.13 188.464 258.965 181.426C266.799 174.387 277.869 169.619 285.968 168.096C294.067 166.572 304.275 165.063 304.275 165.063Z" fill="#3F6314"/>
<path d="M299.534 167.401C279.465 178.137 258.821 188.329 238.086 197.728C258.155 186.993 278.807 176.801 299.534 167.401Z" fill="#5C7C2F"/>
<g style="mix-blend-mode:multiply" opacity="0.3">
<path d="M274.345 186.842C271.457 187.167 268.296 185.982 268.825 182.512C269.339 178.861 273.461 175.813 275.707 173.18C276.579 172.174 277.461 171.184 278.353 170.208C271.744 172.569 264.53 176.417 258.965 181.426C251.13 188.464 233.33 200.082 233.33 200.082C233.33 200.082 253.384 193.006 263.744 191.067C269.013 190.015 274.106 188.22 278.867 185.733C277.392 186.221 275.88 186.592 274.345 186.842Z" fill="#3F6314"/>
</g>
</svg>
