<svg width="20" height="20" viewBox="0 0 20 20" fill="none" xmlns="http://www.w3.org/2000/svg">
<path d="M13 0.25C12.5858 0.25 12.25 0.585786 12.25 1C12.25 1.41421 12.5858 1.75 13 1.75H14C16.3472 1.75 18.25 3.65279 18.25 6V7C18.25 7.41421 18.5858 7.75 19 7.75C19.4142 7.75 19.75 7.41421 19.75 7V6C19.75 2.82436 17.1756 0.25 14 0.25H13Z" fill="#F2EAB6"/>
<path d="M6 0.25C2.82436 0.25 0.25 2.82436 0.25 6V7C0.25 7.41421 0.585787 7.75 1 7.75C1.41421 7.75 1.75 7.41421 1.75 7V6C1.75 3.65279 3.65279 1.75 6 1.75H7C7.41421 1.75 7.75 1.41421 7.75 1C7.75 0.585787 7.41421 0.25 7 0.25H6Z" fill="#F2EAB6"/>
<path d="M10 5.25C7.37665 5.25 5.25 7.37665 5.25 10C5.25 12.6234 7.37665 14.75 10 14.75C12.6234 14.75 14.75 12.6234 14.75 10C14.75 7.37665 12.6234 5.25 10 5.25Z" fill="#F2EAB6"/>
<path d="M1.75 13C1.75 12.5858 1.41421 12.25 1 12.25C0.585786 12.25 0.25 12.5858 0.25 13V14C0.25 17.1756 2.82436 19.75 6 19.75H7C7.41422 19.75 7.75 19.4142 7.75 19C7.75 18.5858 7.41422 18.25 7 18.25H6C3.65279 18.25 1.75 16.3472 1.75 14V13Z" fill="#F2EAB6"/>
<path d="M19.75 13C19.75 12.5858 19.4142 12.25 19 12.25C18.5858 12.25 18.25 12.5858 18.25 13V14C18.25 16.3472 16.3472 18.25 14 18.25H13C12.5858 18.25 12.25 18.5858 12.25 19C12.25 19.4142 12.5858 19.75 13 19.75H14C17.1756 19.75 19.75 17.1756 19.75 14V13Z" fill="#F2EAB6"/>
</svg>
