<svg width="375" height="165" viewBox="0 0 375 165" fill="none"
    xmlns="http://www.w3.org/2000/svg">
    <g clip-path="url(#clip0_1007_975)">
        <path d="M335.334 24.2493C335.968 27.9874 337.032 31.6324 338.503 35.1055C340.159 38.6743 339.69 48.2227 337.255 59.331C334.82 70.4394 330.396 98.3598 326.608 100.944C322.819 103.528 319.802 112.383 319.802 112.383C319.802 112.383 320.021 103 317.36 99.187C314.698 95.374 320.052 67.6268 321.564 56.3452C323.076 45.0636 325.882 35.9563 328.642 33.2305C331.212 30.5285 333.459 27.5129 335.334 24.2493Z" fill="#3F6314"/>
        <path d="M334.465 29.2124C330.789 54.9821 326.237 80.9094 320.898 106.364C324.558 80.5864 329.126 54.667 334.465 29.2124Z" fill="#5C7C2F"/>
        <g style="mix-blend-mode:multiply" opacity="0.3">
            <path d="M325.942 72.3931C322.396 69.297 322.804 62.6871 322.403 58.3856C322.282 57.0385 322.086 55.707 321.866 54.3756C321.768 55.0295 321.67 55.6834 321.587 56.3452C320.074 67.6268 314.72 95.3739 317.382 99.187C320.044 103 319.825 112.383 319.825 112.383C319.825 112.383 322.849 103.528 326.63 100.944C329.655 98.8561 333.171 80.2241 335.705 67.288C333.844 70.7308 330.109 76.0171 325.942 72.3931Z" fill="#3F6314"/>
        </g>
        <path d="M373.128 0C373.128 0 372.312 14.6062 371.223 26.2109C370.134 37.8155 365.007 54.0526 356.394 65.9881C347.781 77.9236 334.17 104.505 334.17 104.505C334.17 104.505 341.346 75.3159 342.73 60.4576C344.113 45.5992 350.844 30.0082 357.559 20.6804C364.274 11.3525 373.128 0 373.128 0Z" fill="#3F6314"/>
        <path d="M370.557 6.9801C360.278 37.5319 349.031 67.7029 336.816 97.4931C347.085 66.9309 358.332 36.7598 370.557 6.9801Z" fill="#5C7C2F"/>
        <g style="mix-blend-mode:multiply" opacity="0.3">
            <path d="M363.139 51.4292C360.545 54.5253 356.333 56.2743 353.619 52.1697C350.783 47.8525 352.106 40.7148 351.948 35.8067C351.88 33.9238 351.864 32.0487 351.872 30.1737C347.403 38.9658 343.705 49.8693 342.73 60.4576C341.346 75.316 334.17 104.505 334.17 104.505C334.17 104.505 347.781 77.9237 356.394 65.9882C360.702 59.8529 364.15 53.1097 366.633 45.9617C365.609 47.8776 364.441 49.7058 363.139 51.4292Z" fill="#3F6314"/>
        </g>
        <path d="M15.9879 132.323C15.9879 132.323 27.2324 132.205 36.1857 132.472C45.139 132.74 57.8808 136.112 67.4995 142.627C77.1182 149.143 98.2537 159.006 98.2537 159.006C98.2537 159.006 75.4849 154.634 64.0135 154.279C52.5421 153.925 40.2238 149.198 32.6997 144.124C25.1756 139.051 15.9879 132.323 15.9879 132.323Z" fill="#3F6314"/>
        <path d="M21.4778 134.103C45.381 140.957 69.3219 148.717 92.7335 157.218C68.8304 150.364 44.8895 142.596 21.4778 134.103Z" fill="#5C7C2F"/>
        <g style="mix-blend-mode:multiply" opacity="0.3">
            <path d="M55.9827 137.814C58.5008 139.799 60.0737 143.226 57.0792 145.692C53.9183 148.292 48.3755 147.575 44.6248 147.985C43.1804 148.142 41.7361 148.261 40.2994 148.363C47.2866 151.593 55.8693 154.067 64.0286 154.303C75.5 154.634 98.2689 159.03 98.2689 159.03C98.2689 159.03 77.156 149.119 67.4995 142.628C62.5591 139.378 57.1992 136.879 51.5817 135.206C53.1143 135.949 54.5862 136.822 55.9827 137.814Z" fill="#3F6314"/>
        </g>
        <path d="M45.8952 95.8152C45.8952 95.8152 59.1361 100.7 69.5337 105.009C79.9313 109.318 93.4746 118.969 102.088 130.905C110.701 142.84 131.428 163.844 131.428 163.844C131.428 163.844 106.473 148.552 93.1872 143.045C79.901 137.538 67.371 126.462 60.6711 117.149C53.9713 107.837 45.8952 95.8152 45.8952 95.8152Z" fill="#3F6314"/>
        <path d="M51.6044 100.361C76.9216 119.137 101.624 138.778 125.711 159.282C100.394 140.506 75.6916 120.865 51.6044 100.361Z" fill="#5C7C2F"/>
        <g style="mix-blend-mode:multiply" opacity="0.3">
            <path d="M90.533 120.112C92.673 123.562 93.1041 128.281 88.5745 129.841C83.8105 131.48 77.5946 128.163 73.0272 126.974C71.2653 126.509 69.5337 126.004 67.8096 125.477C74.6682 132.394 83.6895 139.122 93.1872 143.045C106.511 148.56 131.428 163.844 131.428 163.844C131.428 163.844 110.701 142.817 102.11 130.905C97.65 124.888 92.3895 119.564 86.4874 115.093C87.9644 116.649 89.3173 118.327 90.533 120.112Z" fill="#3F6314"/>
        </g>
        <path d="M376.516 138.878C374.342 140.054 372.311 141.498 370.467 143.179C368.606 145.007 362.625 146.614 355.305 147.228C347.985 147.843 329.905 150.506 327.553 148.497C325.201 146.488 319.152 146.275 319.152 146.275C319.152 146.275 324.967 144.534 326.774 141.989C328.581 139.445 346.737 137.436 353.997 136.167C361.256 134.899 367.419 134.946 369.65 136.238C371.827 137.406 374.133 138.292 376.516 138.878Z" fill="#3F6314"/>
        <path d="M373.287 139.271C356.651 142.005 339.811 144.18 323.069 145.747C339.705 143.014 356.545 140.839 373.287 139.271Z" fill="#5C7C2F"/>
        <g style="mix-blend-mode:multiply" opacity="0.3">
            <path d="M344.998 142.289C346.193 139.295 350.337 138.239 352.908 137.105C353.71 136.75 354.496 136.357 355.267 135.939L353.997 136.144C346.745 137.412 328.596 139.421 326.774 141.966C324.952 144.511 319.152 146.252 319.152 146.252C319.152 146.252 325.201 146.464 327.553 148.473C329.451 150.096 341.618 148.67 350.087 147.741C347.607 147.221 343.599 145.795 344.998 142.289Z" fill="#3F6314"/>
        </g>
        <path d="M406.023 188.211C406.023 188.211 398.786 188.211 392.941 189.952C388.517 191.284 377.658 188.755 365.423 183.476C353.188 178.198 322.086 167.011 319.893 161.772C317.7 156.533 308.164 151.026 308.164 151.026C308.164 151.026 318.872 153.208 323.78 150.671C328.687 148.135 359.404 160.432 372.032 164.6C384.66 168.768 394.521 174.125 397.084 178.103C400.472 183.374 406.023 188.211 406.023 188.211Z" fill="#3F6314"/>
        <path d="M400.518 186.147C371.616 176.304 343.057 165.451 314.841 153.586C343.753 163.418 372.312 174.272 400.518 186.147Z" fill="#5C7C2F"/>
        <g style="mix-blend-mode:multiply" opacity="0.3">
            <path d="M352.749 166.766C357.022 162.977 364.508 164.828 369.521 165.191C371.094 165.309 372.66 165.34 374.225 165.325L372.032 164.576C359.404 160.409 328.695 148.111 323.78 150.648C318.864 153.184 308.164 151.002 308.164 151.002C308.164 151.002 317.7 156.517 319.893 161.748C321.67 165.979 342.314 174.101 356.628 179.868C353.059 176.914 347.751 171.178 352.749 166.766Z" fill="#3F6314"/>
        </g>
        <path d="M-3 177.662C-3 177.662 55.6878 162.89 59.189 161.709C62.6901 160.527 79.7952 155.209 92.605 157.273C105.415 159.337 142.128 157.573 147.209 157.273C152.291 156.974 205.33 154.421 223.237 157.273C241.143 160.125 274.801 146.701 284.624 140.083C294.447 133.465 350.791 85.4552 354.572 82.8081C358.353 80.161 375.095 78.0812 375.095 78.0812V100.274C375.095 100.274 357.218 103.599 351.169 109.626C345.119 115.652 311.65 159.345 311.65 159.345C306.932 166.081 289.222 178.71 286.734 177.512C284.246 176.315 261.288 180.262 259.723 181.451C258.158 182.641 191.817 183.815 178.863 185.391C165.91 186.966 131.776 185.391 131.776 185.391C131.776 185.391 192.724 196.026 202.57 197.602C212.416 199.178 231.245 206.087 243.949 208.143C256.653 210.199 292.927 208.238 311.65 209.813C322.592 210.727 328.997 211.515 332.43 212.011C332.531 212.011 332.627 212.053 332.698 212.127C332.769 212.2 332.808 212.301 332.808 212.405C332.808 212.51 332.769 212.61 332.698 212.684C332.627 212.758 332.531 212.799 332.43 212.799C321.269 213.587 286.25 215.95 280.518 217.305C273.712 218.881 246.807 222.426 240.962 221.638C235.116 220.851 190.857 211.397 182.932 211.003C175.007 210.609 106.973 196.034 96.7262 196.034C86.4799 196.034 69.2992 196.034 59.189 196.822C49.0787 197.61 30.4236 208.994 21.1981 213.311C11.9725 217.628 -3 221.694 -3 221.694V177.662Z" fill="#7A5F4C"/>
        <g style="mix-blend-mode:multiply" opacity="0.35">
            <path d="M356.946 101.062C352.651 103.662 347.516 105.529 344.144 109.421C340.771 113.313 337.459 117.693 334.064 121.758C330.668 125.823 327.303 129.928 323.643 133.725C320.619 136.876 317.087 139.437 313.813 142.304C310.032 145.598 307.695 149.159 304.966 153.334C302.95 156.367 300.316 158.898 297.252 160.747C290.076 165.246 281.773 165.892 273.659 166.892C264.706 168.011 256.328 171.391 247.336 172.36C227.555 174.487 207.803 176.898 188.036 179.324C177.759 180.593 167.543 182.365 157.274 183.673C151.55 184.406 145.78 184.689 140.147 185.706C151.104 186.068 169.971 186.493 178.863 185.391C191.817 183.815 258.158 182.633 259.723 181.451C261.288 180.27 284.246 176.331 286.734 177.512C289.222 178.694 306.932 166.081 311.65 159.345C311.65 159.345 345.119 115.66 351.169 109.626C357.218 103.591 375.095 100.274 375.095 100.274V94.4048C368.713 95.4826 362.568 97.7369 356.946 101.062Z" fill="#7A5F4C"/>
        </g>
    </g>
    <defs>
        <clipPath id="clip0_1007_975">
            <rect width="375" height="165" fill="white"/>
        </clipPath>
    </defs>
</svg>
