<svg width="25" height="24" viewBox="0 0 25 24" fill="none" xmlns="http://www.w3.org/2000/svg">
<g clip-path="url(#clip0_1007_887)">
<path d="M13.0945 5.20819C12.9023 4.59727 12.0976 4.59727 11.9054 5.20819C11.6268 6.09399 10.8176 6.71631 9.88001 6.71631C9.58994 6.71631 9.37348 6.89471 9.28547 7.17451C9.19692 7.45601 9.26925 7.75176 9.52059 7.9404C10.2639 8.49829 10.5637 9.47391 10.2862 10.3561C10.1838 10.6818 10.3064 10.9606 10.5213 11.122C10.7328 11.2807 10.9976 11.304 11.2402 11.122C11.9897 10.5594 13.0103 10.5594 13.7598 11.122C14.0024 11.304 14.2672 11.2807 14.4786 11.122C14.6936 10.9606 14.8162 10.6818 14.7137 10.3561C14.4363 9.47391 14.736 8.49829 15.4794 7.9404C15.7307 7.75176 15.803 7.45601 15.7145 7.17451C15.6265 6.89471 15.41 6.71631 15.1199 6.71631C14.1824 6.71631 13.3731 6.09399 13.0945 5.20819Z" fill="#F2EAB6"/>
<path fill-rule="evenodd" clip-rule="evenodd" d="M3.74996 9C3.74996 4.16751 7.66747 0.25 12.5 0.25C17.3325 0.25 21.25 4.16751 21.25 9C21.25 9.42706 21.2193 9.84715 21.1601 10.2581C21.0334 10.5946 20.8877 10.9218 20.7243 11.2382C19.4125 13.7781 16.9595 15.6312 14.0471 16.1213C13.5445 16.2059 13.0277 16.25 12.5 16.25C11.883 16.25 11.2808 16.1897 10.6987 16.0749C7.84644 15.5122 5.46252 13.6362 4.20636 11.1011C4.07075 10.8274 3.94828 10.5461 3.83979 10.2578C3.78059 9.84693 3.74996 9.42694 3.74996 9ZM10.4745 4.75812C11.107 2.74729 13.8929 2.74729 14.5254 4.75812C14.6156 5.0448 14.864 5.21631 15.1199 5.21631C17.229 5.21631 17.9921 7.93003 16.3797 9.1401C16.1576 9.30685 16.0533 9.61567 16.1446 9.90599C16.4545 10.8912 16.057 11.8128 15.379 12.3217C14.6975 12.8332 13.6963 12.9498 12.8594 12.3217C12.6434 12.1595 12.3566 12.1595 12.1406 12.3217C11.3037 12.9498 10.3025 12.8332 9.62093 12.3217C8.94289 11.8128 8.54543 10.8912 8.85532 9.90599C8.94664 9.61567 8.84237 9.30685 8.6202 9.1401C7.00787 7.93003 7.77095 5.21631 9.88001 5.21631C10.1359 5.21631 10.3844 5.0448 10.4745 4.75812Z" fill="#F2EAB6"/>
<path d="M3.76358 13.2652C3.67493 13.4153 3.58155 13.5771 3.48098 13.7513L1.655 16.914C1.42953 17.3044 1.22105 17.6654 1.10086 17.9642C0.983122 18.2569 0.834849 18.7645 1.16251 19.2343C1.49432 19.71 2.02695 19.7382 2.3426 19.7225C2.6622 19.7066 3.06848 19.6267 3.50491 19.5407L4.29618 19.3851C4.73484 19.2988 4.9951 19.2491 5.1882 19.2358C5.2764 19.2297 5.32375 19.2338 5.34705 19.2377C5.35775 19.2395 5.36407 19.2416 5.36407 19.2416L5.36701 19.243L5.36966 19.2449C5.36966 19.2449 5.37466 19.2493 5.38157 19.2576C5.39661 19.2759 5.42382 19.3148 5.46267 19.3942C5.54772 19.5681 5.63475 19.8184 5.77936 20.2414L6.04018 21.0044C6.184 21.4254 6.31789 21.8172 6.46393 22.102C6.60817 22.3832 6.89891 22.8304 7.47682 22.8798C8.04749 22.9287 8.41291 22.5465 8.60753 22.2982C8.80622 22.0447 9.01461 21.6836 9.23997 21.2932L11.0292 18.1941C11.1357 18.0096 11.2331 17.8409 11.3209 17.686C11.0127 17.6524 10.7084 17.6057 10.4084 17.5465C7.68108 17.0085 5.32602 15.4403 3.76358 13.2652Z" fill="#F2EAB6"/>
<path d="M21.0814 13.4757C21.1268 13.554 21.1735 13.635 21.2219 13.7188L23.0666 16.9141C23.2921 17.3044 23.5006 17.6654 23.6208 17.9642C23.7385 18.2569 23.8868 18.7645 23.5591 19.2343C23.2273 19.71 22.6947 19.7382 22.379 19.7225C22.0594 19.7066 21.6531 19.6267 21.2167 19.5407L20.4254 19.3851C19.9868 19.2988 19.7265 19.2491 19.5334 19.2358C19.4452 19.2297 19.3979 19.2338 19.3746 19.2377C19.3639 19.2395 19.3575 19.2416 19.3575 19.2416L19.3546 19.243L19.3532 19.2439L19.3519 19.2449C19.3519 19.2449 19.3469 19.2493 19.34 19.2576C19.325 19.2759 19.2978 19.3148 19.2589 19.3942C19.1739 19.5681 19.0869 19.8184 18.9422 20.2414L18.6814 21.0044C18.5376 21.4254 18.4037 21.8173 18.2577 22.102C18.1134 22.3832 17.8227 22.8304 17.2448 22.8798C16.6741 22.9287 16.3087 22.5465 16.1141 22.2982C15.9154 22.0447 15.707 21.6837 15.4816 21.2932L13.6923 18.194C13.5917 18.0196 13.4992 17.8594 13.4152 17.7115C13.7123 17.6865 14.0061 17.6493 14.296 17.6005C17.0589 17.1356 19.4623 15.618 21.0814 13.4757Z" fill="#F2EAB6"/>
</g>
<defs>
<clipPath id="clip0_1007_887">
<rect width="24" height="24" fill="white" transform="translate(0.5)"/>
</clipPath>
</defs>
</svg>
