<svg width="25" height="24" viewBox="0 0 25 24" fill="none" xmlns="http://www.w3.org/2000/svg">
<path fill-rule="evenodd" clip-rule="evenodd" d="M15.2808 19.7005C17.5905 16.7551 20.5 12.4759 20.5 9.6087C20.5 4.85424 16.9183 1 12.5 1C8.08172 1 4.5 4.85424 4.5 9.6087C4.5 12.4759 7.40945 16.7551 9.71921 19.7005C10.9242 21.2371 11.5268 22.0055 12.5 22.0055C13.4732 22.0055 14.0758 21.2371 15.2808 19.7005ZM12.5 13C10.8431 13 9.5 11.6569 9.5 10C9.5 8.34315 10.8431 7 12.5 7C14.1569 7 15.5 8.34315 15.5 10C15.5 11.6569 14.1569 13 12.5 13Z" fill="#F2EAB6"/>
</svg>
