<svg width="241" height="85" viewBox="0 0 241 85" fill="none" xmlns="http://www.w3.org/2000/svg">
<path d="M1.00778 41.3425C1.62396 41.0737 4.14863 40.9393 8.58178 40.9393C8.93026 40.9606 9.26572 41.0796 9.54982 41.2825C9.83392 41.4854 10.0552 41.7642 10.1884 42.0869C10.326 42.739 10.3781 43.4063 10.3435 44.0719C10.3435 45.5565 10.1905 49.357 9.88444 55.4732L9.72936 57.7684L10.4985 57.2349C12.0741 55.8896 13.9723 54.9768 16.0069 54.5862C16.6886 54.4663 17.3806 54.4144 18.0725 54.4311C22.7125 54.4311 26.1283 56.6001 28.3201 60.9382C29.4088 63.2031 29.9586 65.6892 29.9267 68.202C30.003 70.4201 29.6404 72.6315 28.8598 74.7091C28.0672 76.4993 26.9216 78.1112 25.4915 79.4483C24.332 80.6215 22.9186 81.5128 21.3602 82.0536C19.9345 82.5527 18.4355 82.8106 16.925 82.8165C14.9942 82.7933 13.0908 82.3576 11.3422 81.5387L9.89064 80.8626C9.89992 81.5085 9.87507 82.1546 9.8162 82.7979C9.75043 83.2523 9.56408 83.6807 9.27653 84.0386C9.11579 84.2473 8.90599 84.4132 8.66576 84.5214C8.42554 84.6296 8.16231 84.6768 7.89944 84.6589C7.5146 84.634 7.14467 84.5007 6.83251 84.2743C6.50611 84.1019 6.23837 83.8363 6.06332 83.5113C5.96407 83.3583 5.85035 80.8977 5.72215 76.1296C5.59395 71.3615 5.52985 67.6499 5.52985 64.995V63.5435C5.6291 62.9314 5.73042 60.1648 5.8338 55.2437C5.93719 50.3226 6.01369 47.6346 6.06332 47.1797L6.2184 45.1699H1.16286L0.54255 44.5495C0.371815 44.3814 0.237035 44.1804 0.146396 43.9586C0.0557566 43.7368 0.0111499 43.4989 0.0152852 43.2593C-0.0335477 42.8768 0.0352653 42.4885 0.212566 42.1461C0.389866 41.8037 0.667244 41.5234 1.00778 41.3425ZM19.1395 58.7113C18.9472 58.706 18.756 58.681 18.5688 58.6368L18.0353 58.5189C17.9455 58.4994 17.8542 58.487 17.7624 58.4817C16.9856 58.6048 16.2186 58.783 15.4672 59.0152C12.7131 59.987 10.9038 62.3339 10.0395 66.0557C9.77898 66.9242 9.65492 69.0642 9.65492 72.4822C9.63488 73.1716 9.65975 73.8616 9.72936 74.5478C9.88651 75.3087 10.6019 76.1503 11.8756 77.0725C13.2805 78.0877 14.9625 78.6483 16.6955 78.6791C16.8862 78.6816 17.0767 78.694 17.2661 78.7163C17.4957 78.7163 17.6631 78.7535 17.7624 78.7535C18.3116 78.7474 18.8555 78.6445 19.369 78.4496C22.2307 77.5315 24.2198 75.4907 25.3364 72.3271C25.6853 71.0317 25.84 69.6917 25.7954 68.3509C25.8617 66.8384 25.6687 65.3258 25.2247 63.8784C24.7312 62.7182 24.017 61.6649 23.1219 60.7769C22.0617 59.6638 20.66 58.9368 19.1395 58.7113Z" fill="black"/>
<path d="M33.326 39.432C33.5803 39.1776 34.6783 39.0474 36.6198 39.0474C38.5614 39.0474 39.5973 39.1776 39.9075 39.432C40.1837 39.6094 40.4186 39.8443 40.596 40.1205C40.6953 40.2239 40.7449 43.8775 40.7449 51.0814C40.7449 60.4357 40.6953 67.4121 40.596 72.0107L40.5216 80.0748C40.6672 80.0637 40.8121 80.045 40.9558 80.0189C41.108 79.9977 41.2612 79.9853 41.4148 79.9817C41.8518 79.9333 42.293 80.0227 42.6768 80.2373C43.0605 80.452 43.3675 80.7812 43.5549 81.1789C43.6675 81.4389 43.7205 81.7208 43.71 82.0039C43.71 82.6553 43.2448 83.2445 42.3267 83.8028C41.9296 84.0191 41.4822 84.1261 41.0302 84.113L40.4968 84.0758C40.2165 84.0472 39.9349 84.0327 39.6532 84.0323C36.5971 83.8338 34.8623 83.6085 34.4487 83.3562C34.1742 83.1632 33.9529 82.9038 33.8054 82.6023C33.6579 82.3009 33.589 81.967 33.6051 81.6317C33.5959 81.3812 33.6391 81.1314 33.732 80.8986C33.825 80.6657 33.9656 80.4548 34.1448 80.2795C34.5327 79.9646 35.0228 79.8034 35.5219 79.8266H36.3593L36.4399 75.3046C36.5392 72.0335 36.5909 65.9275 36.595 56.9868V43.191H35.6211C35.0366 43.2067 34.4578 43.0722 33.9401 42.8002C33.5724 42.6101 33.263 42.3241 33.0446 41.9725C32.8262 41.6209 32.7069 41.2167 32.6995 40.8028C32.7051 40.5437 32.7636 40.2885 32.8713 40.0528C32.979 39.8171 33.1338 39.6058 33.326 39.432Z" fill="black"/>
<path d="M66.1033 51.0629C67.1081 50.8524 68.1364 50.7752 69.1614 50.8333C70.8424 50.8333 71.8659 50.9574 72.2195 51.2117C72.507 51.3878 72.7432 51.6364 72.9043 51.9325C73.0654 52.2287 73.1459 52.5619 73.1376 52.899C73.1376 54.3257 72.9598 58.3164 72.6041 64.871C72.2485 71.4256 72.0706 75.4163 72.0706 76.843C72.0708 77.1505 72.0957 77.4575 72.1451 77.7611V77.8355C72.1947 77.9906 72.6041 78.065 73.3857 78.065C74.5581 78.065 75.3025 78.4248 75.6064 79.1381C75.6902 79.3592 75.7424 79.591 75.7615 79.8267C75.6684 80.7259 75.2222 81.5514 74.5209 82.1218H71.9218C70.1849 82.1218 69.1428 81.9668 68.783 81.6628C68.4767 81.3999 68.2347 81.0703 68.0755 80.6994C67.9164 80.3284 67.8443 79.9259 67.8649 79.5227V78.8342C65.5804 80.5129 62.8219 81.423 59.987 81.4333C59.1914 81.4365 58.3976 81.3596 57.6174 81.2038C55.4904 80.7273 53.6351 79.4355 52.4502 77.606C51.2551 75.7699 50.4776 73.0674 50.1178 69.4985C49.9648 68.171 49.8883 65.6898 49.8883 62.0548C49.8883 59.9623 49.94 58.2523 50.0434 56.9248C50.093 55.9571 50.0434 55.4733 49.8883 55.4733C49.4826 55.5875 49.0674 55.6643 48.6477 55.7028C48.3626 55.7498 48.0707 55.733 47.7928 55.6537C47.515 55.5743 47.2583 55.4343 47.0411 55.2438C46.8344 55.0607 46.6668 54.8378 46.5485 54.5884C46.4301 54.3389 46.3635 54.0681 46.3525 53.7922C46.3542 53.4722 46.4329 53.1573 46.5821 52.8742C46.9853 52.105 47.984 51.5963 49.5658 51.342C50.3233 51.2032 51.0909 51.1265 51.8609 51.1125C53.0333 51.1125 53.7963 51.5219 54.1561 52.3531C54.277 52.6695 54.3319 53.0072 54.3173 53.3456C54.3159 54.2388 54.2662 55.1313 54.1685 56.0191C53.9162 59.4929 53.788 62.0692 53.7839 63.7482C53.8001 65.4065 53.9015 67.0629 54.0878 68.7107C54.2781 70.6203 54.716 72.4969 55.3905 74.2935C55.8366 75.3669 56.6502 76.2465 57.6856 76.7748C58.4137 77.0676 59.1972 77.1968 59.9808 77.1531C62.2879 77.2361 64.5462 76.4753 66.3328 75.0131C66.8237 74.542 67.2418 74.0006 67.5734 73.4065L68.1069 72.414L68.2619 67.743C68.3612 64.9392 68.568 61.0892 68.8822 56.1928L68.9567 54.9522H67.5052C66.7971 55.0307 66.0855 54.8378 65.514 54.4125C65.3159 54.2266 65.1585 54.0016 65.0518 53.7517C64.945 53.5019 64.8912 53.2327 64.8936 52.961C64.8693 52.5575 64.9732 52.1566 65.1905 51.8157C65.4077 51.4748 65.7272 51.2113 66.1033 51.0629Z" fill="black"/>
<path d="M82.2313 57.1047C83.2367 55.129 84.7316 53.444 86.5735 52.2104C88.3687 50.9388 90.5204 50.2683 92.7201 50.2951C94.9199 50.3218 97.0547 51.0444 98.8184 52.3593C100.196 53.2773 101.393 55.0121 102.41 57.5637C103.061 59.3276 103.399 61.1918 103.409 63.0721C103.409 65.0612 103.051 66.4135 102.336 67.1289C101.976 67.4845 101.058 67.7389 99.5814 67.8919C95.3454 68.4659 91.0775 68.7725 86.803 68.8099H85.0475C85.383 70.2916 85.9503 71.711 86.7285 73.0156C88.4075 76.0304 91.0335 77.5356 94.6065 77.5315C96.8294 77.5239 98.9854 76.7703 100.729 75.3914C101.003 75.1947 101.326 75.0763 101.663 75.049C101.999 75.0217 102.337 75.0864 102.64 75.2364C103.363 75.7814 103.963 76.4725 104.401 77.2648C105.164 78.4124 105.549 79.1877 105.549 79.5972C105.549 80.8378 104.784 81.4581 103.254 81.4581C102.971 81.4429 102.695 81.3668 102.445 81.2351C102.194 81.1034 101.975 80.9192 101.802 80.6951L101.126 79.9011L100.282 80.2857C98.3842 81.1453 96.3243 81.5894 94.2405 81.5883C92.6724 81.6179 91.1141 81.3353 89.6562 80.7571C88.1983 80.1788 86.87 79.3164 85.7485 78.2201C82.2251 74.9117 80.4655 70.5696 80.4696 65.1935C80.4714 62.4023 81.0722 59.6439 82.2313 57.1047ZM99.2961 62.5944C99.3402 60.6189 98.7487 58.6815 97.6088 57.0674C97.0935 56.3212 96.4091 55.7074 95.6113 55.2762C94.8135 54.845 93.9251 54.6085 93.0185 54.5862C91.941 54.5551 90.8703 54.7671 89.8859 55.2065C86.772 56.6953 85.0124 59.5197 84.6071 63.68L84.5265 64.7593H87.8203C91.6612 64.7627 95.497 64.4807 99.2961 63.9157V62.5944Z" fill="black"/>
<path d="M106.603 41.3425C107.211 41.0737 109.728 40.9393 114.153 40.9393C114.501 40.9606 114.836 41.0796 115.121 41.2825C115.405 41.4854 115.626 41.7642 115.759 42.0869C115.891 42.7399 115.941 43.4066 115.908 44.0719C115.908 45.5565 115.755 49.357 115.449 55.4732L115.3 57.7684L116.063 57.2349C117.646 55.8857 119.553 54.9727 121.596 54.5862C122.278 54.4663 122.97 54.4144 123.662 54.4311C128.302 54.4311 131.72 56.6001 133.916 60.9382C135.001 63.2041 135.551 65.6895 135.522 68.202C135.597 70.4206 135.232 72.632 134.449 74.7091C133.659 76.5006 132.513 78.1129 131.081 79.4483C129.921 80.6215 128.508 81.5128 126.95 82.0536C125.329 82.6341 123.609 82.8875 121.889 82.7991C120.169 82.7107 118.484 82.2823 116.932 81.5387L115.474 80.8626C115.483 81.5085 115.458 82.1546 115.399 82.7979C115.336 83.2518 115.152 83.6803 114.866 84.0386C114.704 84.2465 114.494 84.4118 114.254 84.5199C114.014 84.628 113.752 84.6757 113.489 84.6589C113.102 84.6342 112.73 84.5009 112.416 84.2743C112.088 84.1053 111.822 83.8387 111.653 83.5113C111.549 83.3583 111.434 80.8977 111.305 76.1296C111.177 71.3615 111.113 67.6499 111.113 64.995V63.5435C111.221 62.9314 111.324 60.1648 111.423 55.2437C111.522 50.3226 111.605 47.6222 111.671 47.1424L111.82 45.1512H106.771L106.151 44.5309C105.976 44.3638 105.838 44.1624 105.745 43.9392C105.652 43.7161 105.606 43.4761 105.611 43.2345C105.567 42.8559 105.639 42.473 105.816 42.1356C105.993 41.7982 106.267 41.5218 106.603 41.3425ZM124.735 58.7113C124.541 58.7064 124.347 58.6815 124.158 58.6368L123.625 58.5189C123.537 58.4995 123.448 58.4871 123.358 58.4817C122.581 58.604 121.814 58.7823 121.063 59.0152C118.309 59.987 116.497 62.3339 115.629 66.0557C115.372 66.9242 115.244 69.0663 115.244 72.4822C115.225 73.1717 115.252 73.8618 115.325 74.5478C115.474 75.3087 116.187 76.1503 117.465 77.0725C118.87 78.0877 120.552 78.6483 122.285 78.6791C122.478 78.6814 122.67 78.6938 122.862 78.7163C123.091 78.7163 123.252 78.7535 123.358 78.7535C123.907 78.7468 124.451 78.6439 124.965 78.4496C127.818 77.5315 129.807 75.4907 130.932 72.3271C131.278 71.0311 131.432 69.6916 131.391 68.3509C131.459 66.8379 131.264 65.3247 130.814 63.8784C130.323 62.7169 129.608 61.6631 128.711 60.7769C127.654 59.6639 126.254 58.9368 124.735 58.7113Z" fill="black"/>
<path d="M142.358 57.1047C143.364 55.129 144.859 53.444 146.7 52.2104C148.496 50.9388 150.647 50.2683 152.847 50.2951C155.047 50.3218 157.182 51.0444 158.945 52.3593C160.322 53.2773 161.52 55.0121 162.537 57.5637C163.188 59.3276 163.526 61.1918 163.536 63.0721C163.536 65.0612 163.178 66.4135 162.462 67.1289C162.103 67.4845 161.185 67.7389 159.708 67.8919C155.472 68.4659 151.204 68.7725 146.93 68.8099H145.168C145.504 70.2916 146.071 71.711 146.849 73.0156C148.528 76.0304 151.154 77.5357 154.727 77.5315C156.95 77.5239 159.106 76.7703 160.85 75.3914C161.124 75.1947 161.447 75.0763 161.783 75.049C162.12 75.0217 162.458 75.0864 162.76 75.2364C163.483 75.7814 164.084 76.4725 164.522 77.2648C165.285 78.4124 165.669 79.1878 165.669 79.5972C165.669 80.8378 164.904 81.4581 163.374 81.4581C163.092 81.4429 162.816 81.3668 162.565 81.2351C162.315 81.1034 162.096 80.9192 161.923 80.6951L161.234 79.9259L160.391 80.3105C158.492 81.1701 156.433 81.6143 154.349 81.6132C152.781 81.6427 151.222 81.3601 149.764 80.7819C148.307 80.2036 146.978 79.3412 145.857 78.2449C142.333 74.9365 140.574 70.5944 140.578 65.2183C140.582 62.4173 141.189 59.6501 142.358 57.1047ZM159.435 62.5944C159.476 60.6175 158.88 58.68 157.736 57.0674C157.22 56.3212 156.536 55.7074 155.738 55.2762C154.94 54.845 154.052 54.6085 153.145 54.5862C152.068 54.5551 150.997 54.7671 150.013 55.2065C146.899 56.6953 145.139 59.5197 144.734 63.68L144.653 64.7593H147.947C151.793 64.7553 155.633 64.465 159.435 63.8909V62.5944Z" fill="black"/>
<path d="M170.21 39.432C170.464 39.1776 171.556 39.0474 173.498 39.0474C175.439 39.0474 176.481 39.1776 176.785 39.432C177.065 39.6057 177.3 39.8413 177.474 40.1205C177.581 40.2239 177.633 43.8775 177.629 51.0814C177.629 60.4357 177.577 67.4121 177.474 72.0107L177.4 80.0748C177.553 80.0707 177.706 80.0583 177.859 80.0375C178.011 80.0166 178.164 80.0042 178.318 80.0003C178.755 79.95 179.197 80.0386 179.581 80.2534C179.965 80.4683 180.272 80.7986 180.458 81.1975C180.573 81.4566 180.626 81.7392 180.613 82.0225C180.613 82.6739 180.154 83.2632 179.236 83.8214C178.836 84.0371 178.387 84.1441 177.933 84.1316L177.4 84.0944C177.119 84.0657 176.838 84.0512 176.556 84.051C173.498 83.8525 171.761 83.6291 171.358 83.3748C171.082 83.1826 170.86 82.9234 170.713 82.6217C170.565 82.32 170.497 81.9858 170.514 81.6503C170.505 81.4004 170.548 81.1512 170.64 80.9185C170.732 80.6859 170.87 80.4746 171.048 80.2981C171.437 79.9852 171.926 79.8243 172.425 79.8452H173.268L173.343 75.3232C173.446 72.0521 173.498 65.9461 173.498 57.0054V43.191H172.505C171.919 43.2086 171.339 43.0762 170.818 42.8065C170.451 42.6158 170.142 42.3297 169.923 41.9782C169.705 41.6266 169.586 41.2228 169.577 40.809C169.583 40.5484 169.642 40.2917 169.751 40.0549C169.86 39.818 170.016 39.606 170.21 39.432Z" fill="black"/>
<path d="M185.693 39.432C185.947 39.1776 187.045 39.0474 188.981 39.0474C190.916 39.0474 191.964 39.1776 192.268 39.432C192.539 39.6086 192.765 39.844 192.932 40.1205C193.035 40.2239 193.087 43.8775 193.087 51.0814C193.087 60.4357 193.035 67.4121 192.932 72.0107L192.858 80.0747C193.011 80.0707 193.164 80.0583 193.317 80.0375C193.469 80.0168 193.622 80.0044 193.776 80.0003C194.213 79.95 194.655 80.0386 195.039 80.2534C195.423 80.4683 195.73 80.7986 195.916 81.1975C196.031 81.4566 196.085 81.7392 196.071 82.0225C196.071 82.6739 195.612 83.2632 194.694 83.8214C194.296 84.0371 193.849 84.1441 193.397 84.1316L192.858 84.0944C192.577 84.0655 192.296 84.051 192.014 84.0509C188.956 83.8524 187.219 83.6291 186.816 83.3748C186.54 83.1826 186.318 82.9234 186.171 82.6217C186.023 82.32 185.955 81.9858 185.972 81.6503C185.963 81.4004 186.006 81.1512 186.098 80.9185C186.19 80.6859 186.329 80.4746 186.506 80.2981C186.895 79.9852 187.384 79.8243 187.883 79.8452H188.726L188.801 75.3232C188.904 72.0521 188.956 65.9461 188.956 57.0054V43.191H187.97C187.384 43.2086 186.803 43.0762 186.282 42.8065C185.915 42.6158 185.606 42.3297 185.388 41.9782C185.169 41.6266 185.05 41.2228 185.042 40.809C185.05 40.547 185.112 40.2895 185.224 40.0525C185.336 39.8156 185.496 39.6043 185.693 39.432Z" fill="black"/>
<path d="M216.268 27.5344C216.244 27.4506 216.195 27.3758 216.129 27.3188C216.063 27.2619 215.981 27.2253 215.895 27.2135C215.808 27.2017 215.72 27.2152 215.641 27.2523C215.562 27.2894 215.496 27.3486 215.449 27.4228C214.711 28.7316 214.903 30.4375 214.37 31.8642C214.083 32.6439 213.637 33.3557 213.061 33.9547C212.708 34.3224 212.287 34.6174 211.821 34.8231C211.636 34.9477 211.422 35.0206 211.2 35.034C211.079 35.0887 210.946 35.1101 210.814 35.0959C210.682 35.0817 210.556 35.0325 210.45 34.9534C210.646 34.8316 210.798 34.6496 210.883 34.4345C210.968 34.2194 210.981 33.9827 210.92 33.7597C210.859 33.5366 210.728 33.3391 210.546 33.1965C210.364 33.0539 210.141 32.9739 209.91 32.9684C209.583 32.9565 209.259 33.0295 208.969 33.1803C208.678 33.3311 208.432 33.5545 208.254 33.8289C208.076 34.1032 207.972 34.419 207.953 34.7454C207.933 35.0719 207.998 35.3978 208.142 35.6915C208.868 37.2671 210.704 37.1865 212.087 36.5786C213.574 35.8855 214.754 34.6687 215.4 33.1607C216.113 31.6347 216.882 29.1535 216.268 27.5344Z" fill="#F2EAB6"/>
<path d="M220.127 36.256C219.794 36.1579 219.507 35.9466 219.315 35.6588C219.122 35.371 219.036 35.0248 219.072 34.6804C219.072 34.3082 219.072 33.9422 219.109 33.57C219.146 32.8256 219.215 32.0875 219.283 31.3493C219.475 30.0864 219.5 28.8038 219.357 27.5344C219.331 27.4464 219.28 27.3678 219.21 27.308C219.141 27.2482 219.055 27.2098 218.964 27.1974C218.873 27.185 218.781 27.199 218.697 27.2379C218.614 27.2767 218.544 27.3388 218.495 27.4165C217.689 28.9797 217.496 30.7352 217.255 32.4597C217.05 34.0849 216.696 36.0016 217.59 37.4966C218.985 39.8041 222.087 39.2024 222.416 36.5971C222.571 35.2697 220.368 34.9719 220.127 36.256Z" fill="#F2EAB6"/>
<path d="M222.422 82.432C222.217 82.4324 222.018 82.3677 221.853 82.2472C221.688 82.1268 221.566 81.9568 221.504 81.7621C221.38 81.3775 218.514 72.1907 222.744 53.296C224.605 45.0645 228.153 36.864 231.305 29.6311C235.368 20.3265 238.872 12.2624 237.253 7.58526C234.772 0.383445 229.679 1.64268 225.195 2.74683L223.904 3.06319C223.78 3.09129 223.651 3.09465 223.526 3.07308C223.4 3.0515 223.28 3.00542 223.173 2.93745C223.065 2.86948 222.972 2.78096 222.898 2.67694C222.825 2.57293 222.772 2.45545 222.744 2.33122C222.716 2.207 222.713 2.07845 222.734 1.95292C222.756 1.8274 222.802 1.70735 222.87 1.59964C222.938 1.49192 223.027 1.39865 223.131 1.32515C223.235 1.25164 223.352 1.19934 223.476 1.17124C223.873 1.0844 224.295 0.978944 224.717 0.873491C228.941 -0.168632 236.007 -1.91791 239.071 6.95254C240.932 12.343 237.284 20.711 233.066 30.4065C229.965 37.5587 226.417 45.6662 224.624 53.7178C220.536 72.017 223.315 81.0798 223.34 81.1666C223.382 81.2887 223.4 81.4181 223.392 81.5471C223.383 81.6761 223.349 81.8022 223.292 81.9179C223.234 82.0335 223.153 82.1364 223.055 82.2205C222.957 82.3045 222.843 82.368 222.719 82.4072C222.622 82.4304 222.522 82.4387 222.422 82.432Z" fill="#94A60F"/>
<path d="M216.951 83.4121C216.622 79.6282 215.003 67.8236 207.274 57.7001C207.274 57.7001 213.545 57.2969 218.173 69.0518C222.8 80.8067 223.278 84.6465 223.278 84.6465H218.315C217.974 84.6524 217.642 84.5281 217.389 84.2989C217.136 84.0696 216.979 83.7526 216.951 83.4121Z" fill="#94A60F"/>
<path d="M220.809 84.6465C220.809 69.728 225.641 45.3994 241 38.9296C241 38.9296 233.271 45.8274 230.455 61.6454C228.37 73.4809 228.265 80.4842 228.346 83.257C228.35 83.438 228.318 83.618 228.251 83.7864C228.185 83.9548 228.085 84.1083 227.959 84.2377C227.832 84.3672 227.681 84.47 227.514 84.5402C227.347 84.6104 227.168 84.6466 226.987 84.6465H220.809Z" fill="#94A60F"/>
<path d="M200.996 25.2455C206.374 19.8736 209.513 21.5236 212.093 11.5986C214.674 1.67363 220.257 1.05331 226.057 2.56687C231.857 4.08043 232.067 8.50945 231.422 17.0884C230.777 25.6673 236.757 28.347 236.757 28.347C236.757 28.347 231.317 32.9621 226.913 31.4486C222.508 29.935 221.95 28.347 221.95 28.347C221.95 28.347 221.411 32.8133 216.789 31.7587C212.168 30.7042 212.28 27.3793 212.28 27.3793C208.31 30.5491 203.614 28.5331 200.996 25.2455Z" fill="#7C5ED4"/>
<path d="M220.927 5.67471C218.061 4.39067 217.236 8.81349 216.647 10.6372C214.903 16.0401 212.683 21.5237 211.616 27.1127C211.541 27.4911 212.1 27.795 212.286 27.3918C213.774 24.2034 214.717 20.7607 215.797 17.4172C216.64 14.8119 217.912 7.14485 220.827 6.41909C220.901 6.39315 220.965 6.34751 221.014 6.28719C221.063 6.22688 221.094 6.15423 221.105 6.07725C221.115 6.00027 221.104 5.92195 221.072 5.85093C221.041 5.7799 220.991 5.71893 220.927 5.67471Z" fill="#947AF7"/>
<path d="M225.232 6.48105C225.202 6.38196 225.137 6.29682 225.05 6.24098C224.963 6.18514 224.859 6.16226 224.756 6.17648C224.654 6.1907 224.56 6.24108 224.491 6.31853C224.422 6.39598 224.384 6.49542 224.382 6.59891C224.345 9.98581 224.655 13.3293 224.382 16.7224C224.109 20.1155 222.943 23.3163 222.707 26.6722C222.711 26.7693 222.746 26.8626 222.807 26.9386C222.868 27.0145 222.951 27.0692 223.045 27.0947C223.139 27.1203 223.238 27.1153 223.329 27.0806C223.42 27.0459 223.498 26.9833 223.551 26.9017C226.621 21.536 226.863 12.3058 225.232 6.48105Z" fill="#947AF7"/>
</svg>
