<svg width="375" height="355" viewBox="0 0 375 355" fill="none"
    xmlns="http://www.w3.org/2000/svg">
    <path d="M274.281 344.629C274.281 344.629 264.012 337.547 256.052 331.59C248.092 325.633 238.626 314.549 233.895 302.725C229.163 290.901 216.085 268.82 216.085 268.82C216.085 268.82 234.05 287.181 244.249 294.807C254.448 302.433 262.675 314.457 266.409 323.663C270.144 332.87 274.281 344.629 274.281 344.629Z" fill="#3F6314"/>
    <path d="M270.392 339.574C252.861 318.248 236.053 296.356 219.97 273.899C237.504 295.219 254.311 317.111 270.392 339.574V339.574Z" fill="#5C7C2F"/>
    <g style="mix-blend-mode:multiply" opacity="0.3">
        <path d="M241.433 314.275C240.369 310.936 241.038 306.954 245.274 306.717C249.735 306.471 254.317 310.64 257.972 312.682C259.366 313.451 260.753 314.291 262.119 315.121C257.763 307.841 251.508 300.199 244.251 294.783C234.052 287.157 216.086 268.796 216.086 268.796C216.086 268.796 229.195 290.891 233.897 302.701C236.385 308.687 239.713 314.29 243.779 319.34C242.862 317.718 242.077 316.024 241.433 314.275V314.275Z" fill="#3F6314"/>
    </g>
    <g style="mix-blend-mode:multiply" opacity="0.2">
        <path d="M274.281 344.629C274.281 344.629 264.012 337.547 256.052 331.59C248.092 325.633 238.626 314.549 233.895 302.725C229.163 290.901 216.085 268.82 216.085 268.82C216.085 268.82 234.05 287.181 244.249 294.807C254.448 302.433 262.675 314.457 266.409 323.663C270.144 332.87 274.281 344.629 274.281 344.629Z" fill="#3F6314"/>
    </g>
    <path d="M-24.9308 228.423C-22.5686 226.799 -20.4121 224.895 -18.5087 222.751C-16.5957 220.455 -9.87999 217.794 -1.48761 216.069C6.90478 214.343 27.5716 208.75 30.5803 210.648C33.589 212.546 40.6484 211.911 40.6484 211.911C40.6484 211.911 34.1393 214.711 32.3822 217.796C30.6251 220.881 9.82031 225.76 1.57566 228.217C-6.66899 230.673 -13.847 231.512 -16.6221 230.389C-19.303 229.404 -22.0925 228.743 -24.9308 228.423V228.423Z" fill="#3F6314"/>
    <path d="M-21.2502 227.479C-2.3396 222.035 16.9566 217.17 36.1918 213.005C17.2844 218.454 -2.01821 223.307 -21.2502 227.479Z" fill="#5C7C2F"/>
    <g style="mix-blend-mode:multiply" opacity="0.3">
        <path d="M11.1982 220.026C10.2269 223.538 5.55547 225.316 2.73999 226.958C1.84446 227.449 1.02093 228.015 0.165267 228.607L1.60781 228.192C9.85245 225.735 30.6579 220.87 32.4144 217.771C34.1709 214.671 40.6805 211.886 40.6805 211.886C40.6805 211.886 33.6243 212.527 30.6124 210.623C28.1797 209.091 14.2412 212.438 4.5105 214.713C7.47633 214.911 12.3336 215.919 11.1982 220.026Z" fill="#3F6314"/>
    </g>
    <g style="mix-blend-mode:multiply" opacity="0.2">
        <path d="M-24.9308 228.423C-22.5686 226.799 -20.4121 224.895 -18.5087 222.751C-16.5957 220.455 -9.87999 217.794 -1.48761 216.069C6.90478 214.343 27.5716 208.75 30.5803 210.648C33.589 212.546 40.6484 211.911 40.6484 211.911C40.6484 211.911 34.1393 214.711 32.3822 217.796C30.6251 220.881 9.82031 225.76 1.57566 228.217C-6.66899 230.673 -13.847 231.512 -16.6221 230.389C-19.303 229.404 -22.0925 228.743 -24.9308 228.423V228.423Z" fill="#3F6314"/>
    </g>
    <path d="M82.5658 330.391C82.5658 330.391 88.8405 322.158 94.0941 315.794C99.3478 309.43 108.903 302.012 118.884 298.558C128.865 295.104 147.701 285.106 147.701 285.106C147.701 285.106 131.773 299.279 125.056 307.432C118.34 315.586 108.056 321.955 100.26 324.672C92.4645 327.388 82.5658 330.391 82.5658 330.391Z" fill="#3F6314"/>
    <path d="M86.9136 327.365C105.209 313.725 124.169 300.542 143.329 288.144C125.037 301.79 106.074 314.968 86.9136 327.365V327.365Z" fill="#5C7C2F"/>
    <g style="mix-blend-mode:multiply" opacity="0.3">
        <path d="M109.008 304.328C111.811 303.559 115.11 304.279 115.119 307.806C115.15 311.512 111.487 315.158 109.676 318.103C108.974 319.254 108.239 320.346 107.493 321.444C113.7 318.12 120.275 313.231 125.086 307.416C131.802 299.263 147.73 285.09 147.73 285.09C147.73 285.09 128.901 295.084 118.914 298.541C113.854 300.368 109.08 302.906 104.736 306.079C106.11 305.38 107.539 304.794 109.008 304.328V304.328Z" fill="#3F6314"/>
    </g>
    <g style="mix-blend-mode:multiply" opacity="0.2">
        <path d="M82.5658 330.391C82.5658 330.391 88.8405 322.158 94.0941 315.794C99.3478 309.43 108.903 302.012 118.884 298.558C128.865 295.104 147.701 285.106 147.701 285.106C147.701 285.106 131.773 299.279 125.056 307.432C118.34 315.586 108.056 321.955 100.26 324.672C92.4645 327.388 82.5658 330.391 82.5658 330.391Z" fill="#3F6314"/>
    </g>
    <path d="M182.959 348.648C183.112 345.114 182.837 341.574 182.139 338.105C181.288 334.512 183.656 325.914 188.193 316.312C192.729 306.71 202.551 282.217 206.668 280.658C210.786 279.1 215.392 271.666 215.392 271.666C215.392 271.666 213.288 280.157 215.045 284.189C216.802 288.221 206.146 312.351 202.444 322.316C198.741 332.28 194.244 339.968 191.081 341.87C188.113 343.797 185.386 346.073 182.959 348.648V348.648Z" fill="#3F6314"/>
    <path d="M184.787 344.322C193.449 321.629 202.985 298.977 213.175 276.917C204.516 299.617 194.971 322.266 184.787 344.322Z" fill="#5C7C2F"/>
    <g style="mix-blend-mode:multiply" opacity="0.3">
        <path d="M201.535 306.788C204.261 310.366 202.563 316.283 202.043 320.298C201.895 321.552 201.806 322.803 201.751 324.058C201.977 323.491 202.199 322.917 202.414 322.332C206.14 312.355 216.778 288.234 215.015 284.205C213.252 280.176 215.362 271.682 215.362 271.682C215.362 271.682 210.747 279.113 206.639 280.675C203.313 281.93 196.259 298.166 191.28 309.42C193.725 306.655 198.33 302.616 201.535 306.788Z" fill="#3F6314"/>
    </g>
    <g style="mix-blend-mode:multiply" opacity="0.2">
        <path d="M182.959 348.648C183.112 345.114 182.837 341.574 182.139 338.105C181.288 334.512 183.656 325.914 188.193 316.312C192.729 306.71 202.551 282.217 206.668 280.658C210.786 279.1 215.392 271.666 215.392 271.666C215.392 271.666 213.288 280.157 215.045 284.189C216.802 288.221 206.146 312.351 202.444 322.316C198.741 332.28 194.244 339.968 191.081 341.87C188.113 343.797 185.386 346.073 182.959 348.648V348.648Z" fill="#3F6314"/>
    </g>
    <path d="M34.6898 268.705C34.6898 268.705 44.4956 260.989 52.5441 255.154C60.5926 249.32 73.9738 243.543 86.6648 242.519C99.3558 241.495 124.331 235.502 124.331 235.502C124.331 235.502 101.484 247.254 91.1907 254.709C80.8972 262.164 66.9761 266.536 57.0668 267.338C47.1576 268.14 34.6898 268.705 34.6898 268.705Z" fill="#3F6314"/>
    <path d="M40.6766 266.49C66.2366 256.061 92.117 246.477 118.318 237.74C92.7578 248.169 66.8774 257.752 40.6766 266.49Z" fill="#5C7C2F"/>
    <g style="mix-blend-mode:multiply" opacity="0.3">
        <path d="M73.3999 246.271C76.9041 246.235 80.5115 248.066 79.4786 252.179C78.3967 256.51 73.0582 259.657 70.0279 262.542C68.8579 263.651 67.6686 264.724 66.4493 265.798C74.6899 263.795 83.8528 260.093 91.1651 254.746C101.458 247.261 124.305 235.539 124.305 235.539C124.305 235.539 99.3236 241.52 86.6294 242.539C80.1759 243.144 73.8413 244.665 67.8162 247.055C69.6533 246.644 71.5206 246.381 73.3999 246.271Z" fill="#3F6314"/>
    </g>
    <g style="mix-blend-mode:multiply" opacity="0.2">
        <path d="M34.6898 268.705C34.6898 268.705 44.4956 260.989 52.5441 255.154C60.5926 249.32 73.9738 243.543 86.6648 242.519C99.3558 241.495 124.331 235.502 124.331 235.502C124.331 235.502 101.484 247.254 91.1907 254.709C80.8972 262.164 66.9761 266.536 57.0668 267.338C47.1576 268.14 34.6898 268.705 34.6898 268.705Z" fill="#3F6314"/>
    </g>
    <path d="M74.4052 139.527C74.4052 139.527 79.9514 142.785 85.1964 144.109C89.1604 145.108 96.403 151.826 103.523 161.2C110.643 170.575 129.692 192.732 129.125 197.57C128.559 202.407 133.505 210.736 133.505 210.736C133.505 210.736 126.229 204.335 121.385 203.994C116.54 203.653 98.2369 180.857 90.3515 172.155C82.4661 163.453 77.1666 155.081 76.9316 150.989C76.5966 145.596 74.4052 139.527 74.4052 139.527Z" fill="#3F6314"/>
    <path d="M77.7433 143.55C95.6912 163.735 112.937 184.516 129.48 205.893C111.531 185.715 94.2851 164.934 77.7433 143.55Z" fill="#5C7C2F"/>
    <g style="mix-blend-mode:multiply" opacity="0.3">
        <path d="M106.076 179.198C101.186 180.061 96.2171 175.353 92.5355 172.828C91.3812 172.035 90.1789 171.323 88.983 170.622C89.4354 171.14 89.8938 171.655 90.358 172.167C98.2434 180.869 116.527 203.698 121.389 204.03C126.251 204.361 133.509 210.772 133.509 210.772C133.509 210.772 128.563 202.443 129.13 197.606C129.59 193.692 117.235 178.468 108.724 167.827C110.194 171.587 111.813 178.176 106.076 179.198Z" fill="#3F6314"/>
    </g>
    <g style="mix-blend-mode:multiply" opacity="0.2">
        <path d="M74.4052 139.527C74.4052 139.527 79.9514 142.785 85.1964 144.109C89.1604 145.108 96.403 151.826 103.523 161.2C110.643 170.575 129.692 192.732 129.125 197.57C128.559 202.407 133.505 210.736 133.505 210.736C133.505 210.736 126.229 204.335 121.385 203.994C116.54 203.653 98.2369 180.857 90.3515 172.155C82.4661 163.453 77.1666 155.081 76.9316 150.989C76.5966 145.596 74.4052 139.527 74.4052 139.527Z" fill="#3F6314"/>
    </g>
    <path d="M-17.7273 267.534C-17.7273 267.534 -11.3393 266.791 -6.35545 264.689C-2.62033 263.118 7.25479 264.126 18.5671 267.297C29.8794 270.467 58.4563 276.711 60.9144 280.918C63.3725 285.125 72.3374 288.792 72.3374 288.792C72.3374 288.792 62.6772 288.064 58.5951 290.722C54.513 293.38 26.1987 286.203 14.633 283.968C3.06717 281.733 -6.16703 278.259 -8.82734 275.151C-12.3431 271.041 -17.7273 267.534 -17.7273 267.534Z" fill="#3F6314"/>
    <path d="M-12.6616 268.726C13.8089 274.043 40.0943 280.247 66.1947 287.34C39.7088 282.042 13.4234 275.837 -12.6616 268.726Z" fill="#5C7C2F"/>
    <g style="mix-blend-mode:multiply" opacity="0.3">
        <path d="M31.424 280.123C28.0552 283.762 21.2435 282.989 16.7804 283.19C15.385 283.258 13.9982 283.397 12.6184 283.563C13.2792 283.707 13.9518 283.844 14.6426 283.986C26.1955 286.198 54.5259 293.404 58.6048 290.74C62.6837 288.076 72.3471 288.81 72.3471 288.81C72.3471 288.81 63.379 285.137 60.9241 280.936C58.9324 277.538 39.9013 272.821 26.6966 269.454C30.1373 271.567 35.3942 275.849 31.424 280.123Z" fill="#3F6314"/>
    </g>
    <g style="mix-blend-mode:multiply" opacity="0.2">
        <path d="M-17.7273 267.534C-17.7273 267.534 -11.3393 266.791 -6.35545 264.689C-2.62033 263.118 7.25479 264.126 18.5671 267.297C29.8794 270.467 58.4563 276.711 60.9144 280.918C63.3725 285.125 72.3374 288.792 72.3374 288.792C72.3374 288.792 62.6772 288.064 58.5951 290.722C54.513 293.38 26.1987 286.203 14.633 283.968C3.06717 281.733 -6.16703 278.259 -8.82734 275.151C-12.3431 271.041 -17.7273 267.534 -17.7273 267.534Z" fill="#3F6314"/>
    </g>
    <path d="M97.9312 244.949C100.759 244.882 103.568 244.475 106.298 243.735C109.115 242.866 116.096 244.296 123.997 247.405C131.897 250.515 151.947 257.049 153.404 260.241C154.862 263.433 161.038 266.722 161.038 266.722C161.038 266.722 154.155 265.498 151.035 267.116C147.915 268.733 128.102 261.511 119.965 259.09C111.829 256.669 105.483 253.489 103.765 251.067C102.074 248.8 100.115 246.746 97.9312 244.949V244.949Z" fill="#3F6314"/>
    <path d="M101.477 246.177C120.028 251.893 138.597 258.296 156.725 265.239C138.168 259.527 119.605 253.121 101.477 246.177V246.177Z" fill="#5C7C2F"/>
    <g style="mix-blend-mode:multiply" opacity="0.3">
        <path d="M132.3 257.541C129.602 259.915 124.782 258.864 121.567 258.687C120.558 258.635 119.554 258.633 118.554 258.653C119.019 258.804 119.482 258.949 119.965 259.09C128.108 261.523 147.912 268.727 151.035 267.116C154.158 265.504 161.038 266.722 161.038 266.722C161.038 266.722 154.866 263.439 153.404 260.241C152.228 257.661 138.905 252.903 129.659 249.505C131.993 251.305 135.457 254.761 132.3 257.541Z" fill="#3F6314"/>
    </g>
    <g style="mix-blend-mode:multiply" opacity="0.2">
        <path d="M97.9312 244.949C100.759 244.882 103.568 244.475 106.298 243.735C109.115 242.866 116.096 244.296 123.997 247.405C131.897 250.515 151.947 257.049 153.404 260.241C154.862 263.433 161.038 266.722 161.038 266.722C161.038 266.722 154.155 265.498 151.035 267.116C147.915 268.733 128.102 261.511 119.965 259.09C111.829 256.669 105.483 253.489 103.765 251.067C102.074 248.8 100.115 246.746 97.9312 244.949V244.949Z" fill="#3F6314"/>
    </g>
    <path d="M147.159 79.2901C147.159 79.2901 151.651 83.5317 155.096 87.0521C159.27 91.5068 162.249 96.9444 163.757 102.859C165.16 108.985 169.913 120.82 169.913 120.82C169.913 120.82 162.509 110.468 158.095 105.961C153.922 101.507 150.942 96.0691 149.434 90.1542C148.334 85.3491 147.159 79.2901 147.159 79.2901Z" fill="#3F6314"/>
    <path d="M148.676 82.0591C155.627 93.8087 162.225 105.851 168.386 118.033C161.441 106.281 154.843 94.238 148.676 82.0591Z" fill="#5C7C2F"/>
    <g style="mix-blend-mode:multiply" opacity="0.3">
        <path d="M160.97 96.6263C161.236 98.342 160.607 100.242 158.515 100.032C156.424 99.8217 154.386 97.43 152.75 96.1506C152.122 95.6601 151.507 95.1541 150.905 94.6416C152.57 98.8335 155.013 102.672 158.107 105.955C162.508 110.437 169.924 120.814 169.924 120.814C169.924 120.814 165.184 109.002 163.768 102.853C163.003 99.7336 161.798 96.739 160.19 93.9588C160.522 94.8252 160.783 95.7174 160.97 96.6263V96.6263Z" fill="#3F6314"/>
    </g>
    <g style="mix-blend-mode:multiply" opacity="0.2">
        <path d="M147.159 79.2901C147.159 79.2901 151.651 83.5317 155.096 87.0521C159.27 91.5068 162.249 96.9444 163.757 102.859C165.16 108.985 169.913 120.82 169.913 120.82C169.913 120.82 162.509 110.468 158.095 105.961C153.922 101.507 150.942 96.0691 149.434 90.1542C148.334 85.3491 147.159 79.2901 147.159 79.2901Z" fill="#3F6314"/>
    </g>
    <path d="M90.8438 262.996C90.8438 262.996 96.982 262.329 101.9 261.994C107.996 261.701 114.066 262.958 119.544 265.648C125.149 268.552 137.21 272.599 137.21 272.599C137.21 272.599 124.533 271.524 118.239 271.962C112.14 272.257 106.066 271.002 100.583 268.315C96.2137 266.044 90.8438 262.996 90.8438 262.996Z" fill="#3F6314"/>
    <path d="M93.9407 263.643C107.389 265.972 120.834 268.756 134.105 271.964C120.653 269.629 107.203 266.848 93.9407 263.643V263.643Z" fill="#5C7C2F"/>
    <g style="mix-blend-mode:multiply" opacity="0.3">
        <path d="M112.99 263.739C114.473 264.642 115.506 266.359 113.979 267.793C112.451 269.228 109.322 269.249 107.29 269.665C106.503 269.821 105.723 269.965 104.943 270.093C109.211 271.541 113.714 272.169 118.214 271.945C124.509 271.507 137.185 272.582 137.185 272.582C137.185 272.582 125.124 268.535 119.519 265.631C116.652 264.188 113.594 263.163 110.437 262.587C111.319 262.899 112.173 263.284 112.99 263.739V263.739Z" fill="#3F6314"/>
    </g>
    <g style="mix-blend-mode:multiply" opacity="0.2">
        <path d="M90.8438 262.996C90.8438 262.996 96.982 262.329 101.9 261.994C107.996 261.701 114.066 262.958 119.544 265.648C125.149 268.552 137.21 272.599 137.21 272.599C137.21 272.599 124.533 271.524 118.239 271.962C112.14 272.257 106.066 271.002 100.583 268.315C96.2137 266.044 90.8438 262.996 90.8438 262.996Z" fill="#3F6314"/>
    </g>
    <path d="M115.296 158.389C115.296 158.389 121.717 158.126 126.844 156.397C130.721 155.085 140.446 156.812 151.493 160.84C162.54 164.869 190.569 173.174 192.711 177.546C194.854 181.918 203.528 186.243 203.528 186.243C203.528 186.243 193.946 184.806 189.681 187.158C185.416 189.51 157.7 180.236 146.344 177.197C134.989 174.157 126.013 169.952 123.605 166.675C120.406 162.292 115.296 158.389 115.296 158.389Z" fill="#3F6314"/>
    <path d="M120.262 159.958C146.284 167.206 172.036 175.331 197.519 184.335C171.501 177.095 145.749 168.969 120.262 159.958Z" fill="#5C7C2F"/>
    <g style="mix-blend-mode:multiply" opacity="0.3">
        <path d="M163.365 174.582C159.716 177.975 153.023 176.678 148.54 176.576C147.146 176.535 145.756 176.57 144.36 176.637C145.017 176.829 145.676 177.012 146.341 177.191C157.706 180.248 185.407 189.492 189.678 187.152C193.95 184.812 203.525 186.238 203.525 186.238C203.525 186.238 194.854 181.919 192.708 177.541C190.979 174.007 172.344 167.901 159.421 163.567C162.731 165.944 167.653 170.608 163.365 174.582Z" fill="#3F6314"/>
    </g>
    <g style="mix-blend-mode:multiply" opacity="0.2">
        <path d="M115.296 158.389C115.296 158.389 121.717 158.126 126.844 156.397C130.721 155.085 140.446 156.812 151.493 160.84C162.54 164.869 190.569 173.174 192.711 177.546C194.854 181.918 203.528 186.243 203.528 186.243C203.528 186.243 193.946 184.806 189.681 187.158C185.416 189.51 157.7 180.236 146.344 177.197C134.989 174.157 126.013 169.952 123.605 166.675C120.406 162.292 115.296 158.389 115.296 158.389Z" fill="#3F6314"/>
    </g>
    <path d="M208.852 94.8897C208.852 94.8897 210.975 104.106 212.381 111.509C213.787 118.912 213.417 129.954 210.017 138.987C206.616 148.02 202.642 167.08 202.642 167.08C202.642 167.08 201.986 147.623 200.178 138.142C198.369 128.662 199.897 117.721 202.542 110.664C205.187 103.608 208.852 94.8897 208.852 94.8897Z" fill="#3F6314"/>
    <path d="M208.444 99.7094C207.341 120.529 205.54 141.54 203.062 162.239C204.155 141.417 205.966 120.409 208.444 99.7094Z" fill="#5C7C2F"/>
    <g style="mix-blend-mode:multiply" opacity="0.3">
        <path d="M211.748 128.67C210.637 131.087 208.218 132.964 205.733 130.931C203.112 128.79 202.678 124.11 201.681 121.102C201.297 119.941 200.944 118.779 200.606 117.616C199.321 123.912 198.914 131.389 200.195 138.133C202.004 147.613 202.66 167.071 202.66 167.071C202.66 167.071 206.647 148.034 210.034 138.978C211.704 134.357 212.707 129.523 213.015 124.621C212.702 126.002 212.279 127.356 211.748 128.67V128.67Z" fill="#3F6314"/>
    </g>
    <g style="mix-blend-mode:multiply" opacity="0.2">
        <path d="M208.852 94.8897C208.852 94.8897 210.975 104.106 212.381 111.509C213.787 118.912 213.417 129.954 210.017 138.987C206.616 148.02 202.642 167.08 202.642 167.08C202.642 167.08 201.986 147.623 200.178 138.142C198.369 128.662 199.897 117.721 202.542 110.664C205.187 103.608 208.852 94.8897 208.852 94.8897Z" fill="#3F6314"/>
    </g>
    <path d="M281.546 158.474C281.546 158.474 286.485 166.538 290.166 173.117C293.846 179.695 297.001 190.276 296.648 199.922C296.295 209.568 298.573 228.896 298.573 228.896C298.573 228.896 291.772 210.652 287.033 202.241C282.295 193.829 280.295 182.952 280.545 175.438C280.795 167.925 281.546 158.474 281.546 158.474Z" fill="#3F6314"/>
    <path d="M282.682 163.176C288.25 183.266 293.212 203.758 297.433 224.173C291.859 204.086 286.909 183.587 282.682 163.176Z" fill="#5C7C2F"/>
    <g style="mix-blend-mode:multiply" opacity="0.3">
        <path d="M295 189.603C294.715 192.241 293.019 194.794 290.015 193.66C286.852 192.459 284.956 188.158 283.05 185.617C282.316 184.641 281.614 183.654 280.931 182.658C281.705 189.035 283.694 196.257 287.06 202.234C291.781 210.655 298.6 228.889 298.6 228.889C298.6 228.889 296.315 209.549 296.672 199.909C296.786 194.997 296.204 190.094 294.943 185.345C295.075 186.76 295.094 188.184 295 189.603V189.603Z" fill="#3F6314"/>
    </g>
    <g style="mix-blend-mode:multiply" opacity="0.2">
        <path d="M281.546 158.474C281.546 158.474 286.485 166.538 290.166 173.117C293.846 179.695 297.001 190.276 296.648 199.922C296.295 209.568 298.573 228.896 298.573 228.896C298.573 228.896 291.772 210.652 287.033 202.241C282.295 193.829 280.295 182.952 280.545 175.438C280.795 167.925 281.546 158.474 281.546 158.474Z" fill="#3F6314"/>
    </g>
    <path d="M-26.645 150.745C-26.645 150.745 -17.7864 154.065 -10.8372 156.976C-3.88806 159.886 5.11685 166.298 10.7713 174.115C16.4257 181.933 30.138 195.762 30.138 195.762C30.138 195.762 13.5469 185.571 4.64303 181.847C-4.26087 178.123 -12.5479 170.813 -16.9917 164.729C-21.4354 158.646 -26.645 150.745 -26.645 150.745Z" fill="#3F6314"/>
    <path d="M-22.8375 153.738C-6.08526 166.138 10.4437 179.236 26.338 192.727C9.58571 180.326 -6.94055 167.22 -22.8375 153.738V153.738Z" fill="#5C7C2F"/>
    <g style="mix-blend-mode:multiply" opacity="0.3">
        <path d="M3.14025 166.982C4.55516 169.271 4.77421 172.299 1.71026 173.25C-1.523 174.256 -5.6684 172.03 -8.7271 171.201C-9.90562 170.882 -11.0671 170.538 -12.2231 170.175C-7.68359 174.728 -1.67729 179.189 4.6607 181.837C13.5882 185.548 30.1556 195.752 30.1556 195.752C30.1556 195.752 16.4492 181.92 10.7889 174.106C7.86433 170.155 4.39151 166.641 0.475248 163.67C1.45079 164.701 2.342 165.808 3.14025 166.982Z" fill="#3F6314"/>
    </g>
    <g style="mix-blend-mode:multiply" opacity="0.2">
        <path d="M-26.645 150.745C-26.645 150.745 -17.7864 154.065 -10.8372 156.976C-3.88806 159.886 5.11685 166.298 10.7713 174.115C16.4257 181.933 30.138 195.762 30.138 195.762C30.138 195.762 13.5469 185.571 4.64303 181.847C-4.26087 178.123 -12.5479 170.813 -16.9917 164.729C-21.4354 158.646 -26.645 150.745 -26.645 150.745Z" fill="#3F6314"/>
    </g>
    <path d="M16.2231 151.028C16.2231 151.028 23.4822 155.707 29.1144 159.653C34.7465 163.599 41.5423 171.068 45.0628 179.143C48.5833 187.218 58.1367 202.222 58.1367 202.222C58.1367 202.222 45.314 189.906 38.0981 184.858C30.8823 179.811 24.9061 171.672 22.1438 165.372C19.3815 159.072 16.2231 151.028 16.2231 151.028Z" fill="#3F6314"/>
    <path d="M19.0389 154.434C31.5705 168.764 43.7744 183.656 55.3375 198.777C42.8033 184.456 30.6079 169.551 19.0389 154.434Z" fill="#5C7C2F"/>
    <g style="mix-blend-mode:multiply" opacity="0.3">
        <path d="M39.6271 171.305C40.4345 173.59 40.0548 176.364 37.13 176.618C34.0492 176.881 30.7847 174.097 28.2151 172.762C27.2276 172.246 26.2546 171.714 25.296 171.167C28.6607 176.49 33.001 181.129 38.0885 184.841C45.3076 189.894 58.127 202.205 58.127 202.205C58.127 202.205 48.5827 187.203 45.0531 179.125C43.2068 175.036 40.7849 171.232 37.8609 167.83C38.5425 168.938 39.1332 170.101 39.6271 171.305Z" fill="#3F6314"/>
    </g>
    <g style="mix-blend-mode:multiply" opacity="0.2">
        <path d="M16.2231 151.028C16.2231 151.028 23.4822 155.707 29.1144 159.653C34.7465 163.599 41.5423 171.068 45.0628 179.143C48.5833 187.218 58.1367 202.222 58.1367 202.222C58.1367 202.222 45.314 189.906 38.0981 184.858C30.8823 179.811 24.9061 171.672 22.1438 165.372C19.3815 159.072 16.2231 151.028 16.2231 151.028Z" fill="#3F6314"/>
    </g>
    <path d="M117.554 126.871C120.042 126.205 122.442 125.243 124.701 124.005C127.009 122.625 133.5 122.393 141.142 123.423C148.784 124.452 167.954 125.969 169.954 128.473C171.954 130.977 178.102 132.565 178.102 132.565C178.102 132.565 171.756 132.978 169.333 135.072C166.91 137.165 147.852 135.013 140.111 134.628C132.37 134.242 126.07 132.768 124.043 130.999C122.054 129.366 119.875 127.981 117.554 126.871Z" fill="#3F6314"/>
    <path d="M120.963 127.194C138.603 128.254 156.43 129.977 173.961 132.222C156.321 131.162 138.494 129.439 120.963 127.194Z" fill="#5C7C2F"/>
    <g style="mix-blend-mode:multiply" opacity="0.3">
        <path d="M150.696 130.667C148.809 133.348 144.321 133.447 141.434 133.98C140.529 134.146 139.644 134.363 138.754 134.598L140.11 134.682C147.815 135.057 166.918 137.222 169.332 135.126C171.746 133.03 178.101 132.619 178.101 132.619C178.101 132.619 171.935 131.041 169.953 128.527C168.355 126.492 155.544 125.13 146.637 124.127C149.074 125.19 152.892 127.503 150.696 130.667Z" fill="#3F6314"/>
    </g>
    <g style="mix-blend-mode:multiply" opacity="0.2">
        <path d="M117.554 126.871C120.042 126.205 122.442 125.243 124.701 124.005C127.009 122.625 133.5 122.393 141.142 123.423C148.784 124.452 167.954 125.969 169.954 128.473C171.954 130.977 178.102 132.565 178.102 132.565C178.102 132.565 171.756 132.978 169.333 135.072C166.91 137.165 147.852 135.013 140.111 134.628C132.37 134.242 126.07 132.768 124.043 130.999C122.054 129.366 119.875 127.981 117.554 126.871Z" fill="#3F6314"/>
    </g>
    <path d="M52.8162 337.498C53.8433 335.135 54.582 332.658 55.0162 330.118C55.379 327.453 59.2354 322.23 64.8314 316.897C70.4275 311.563 83.4993 297.477 86.7082 297.503C89.9171 297.53 94.9857 293.681 94.9857 293.681C94.9857 293.681 91.3427 298.901 91.4779 302.098C91.613 305.295 78.0631 318.901 72.9446 324.7C67.8261 330.5 62.7531 334.551 60.1038 335.014C57.5836 335.546 55.1367 336.38 52.8162 337.498V337.498Z" fill="#3F6314"/>
    <path d="M55.1738 335.034C67.0095 321.893 79.4107 309.001 92.095 296.681C80.2684 309.825 67.8581 322.715 55.1738 335.034Z" fill="#5C7C2F"/>
    <g style="mix-blend-mode:multiply" opacity="0.3">
        <path d="M76.3874 313.913C77.3379 317.046 74.6017 320.636 73.2227 323.223C72.7932 324.032 72.4066 324.865 72.0382 325.702L72.9446 324.7C78.0631 318.901 91.6124 305.28 91.4778 302.098C91.3432 298.916 94.9856 293.681 94.9856 293.681C94.9856 293.681 89.908 297.527 86.7081 297.503C84.1223 297.495 75.0811 306.677 68.7562 313.015C71.121 311.781 75.2964 310.244 76.3874 313.913Z" fill="#3F6314"/>
    </g>
    <g style="mix-blend-mode:multiply" opacity="0.2">
        <path d="M52.8162 337.498C53.8433 335.135 54.582 332.658 55.0162 330.118C55.379 327.453 59.2354 322.23 64.8314 316.897C70.4275 311.563 83.4993 297.477 86.7082 297.503C89.9171 297.53 94.9857 293.681 94.9857 293.681C94.9857 293.681 91.3427 298.901 91.4779 302.098C91.613 305.295 78.0631 318.901 72.9446 324.7C67.8261 330.5 62.7531 334.551 60.1038 335.014C57.5836 335.546 55.1367 336.38 52.8162 337.498V337.498Z" fill="#3F6314"/>
    </g>
    <path d="M239.789 147.832C239.789 147.832 249.623 155.504 257.221 161.92C264.819 168.336 273.625 179.95 277.66 192.025C281.695 204.101 293.481 226.928 293.481 226.928C293.481 226.928 276.617 207.542 266.89 199.366C257.163 191.19 249.616 178.688 246.451 169.261C243.285 159.834 239.789 147.832 239.789 147.832Z" fill="#3F6314"/>
    <path d="M243.372 153.115C259.63 175.425 275.133 198.259 289.881 221.616C273.618 199.314 258.115 176.48 243.372 153.115Z" fill="#5C7C2F"/>
    <g style="mix-blend-mode:multiply" opacity="0.3">
        <path d="M270.842 180.042C271.712 183.434 270.799 187.374 266.562 187.359C262.097 187.346 257.763 182.918 254.23 180.664C252.875 179.798 251.548 178.9 250.236 177.988C254.154 185.516 259.962 193.502 266.883 199.339C276.617 207.542 293.474 226.901 293.474 226.901C293.474 226.901 281.682 204.078 277.653 191.999C275.52 185.875 272.525 180.088 268.757 174.811C269.593 176.495 270.291 178.245 270.842 180.042V180.042Z" fill="#3F6314"/>
    </g>
    <g style="mix-blend-mode:multiply" opacity="0.2">
        <path d="M239.789 147.832C239.789 147.832 249.623 155.504 257.221 161.92C264.819 168.336 273.625 179.95 277.66 192.025C281.695 204.101 293.481 226.928 293.481 226.928C293.481 226.928 276.617 207.542 266.89 199.366C257.163 191.19 249.616 178.688 246.451 169.261C243.285 159.834 239.789 147.832 239.789 147.832Z" fill="#3F6314"/>
    </g>
    <path d="M296.443 224.7C284.548 221.543 231.176 204.241 226.76 199.943C219.794 193.157 205.437 165.358 200.406 161.266C198.945 160.067 191.194 152.142 191.194 152.142C191.194 152.142 184.607 132.624 180.797 127.32C177.409 122.535 151.685 108.523 143.544 100.628C143.491 100.555 143.41 100.508 143.321 100.495C143.232 100.482 143.142 100.505 143.07 100.558C142.998 100.612 142.95 100.692 142.937 100.781C142.924 100.87 142.947 100.961 143 101.033C145.641 105.852 151.203 115.291 155.205 117.717C160.674 120.987 175.704 129.153 175.638 131.326C175.572 133.499 179.253 153.682 180.82 157.059C182.947 161.639 194.193 168.883 195.484 171.24C196.775 173.597 207.717 204.753 209.654 208.288C211.591 211.823 220.026 226.521 222.646 227.108C225.266 227.695 254.335 233.216 257.507 237.607C260.679 241.997 234.893 243.868 228.509 242.004C222.126 240.139 167.168 230.011 160.913 223.487C154.658 216.964 130.129 204.351 105.899 203.47C81.6701 202.588 40.9641 199.597 35.7023 195.585C30.4405 191.574 8.89206 194.188 3.95305 190.766C-0.985966 187.344 -37.3536 177.394 -37.3536 177.394L-28.3153 193.891C-28.3153 193.891 -1.32578 206.297 1.97892 210.232C5.28363 214.167 25.8355 209.035 32.8366 211.327C39.8377 213.619 80.9525 223.649 86.9085 226.131C92.8644 228.613 145.472 244.939 151.391 245.955C154.087 246.416 168.853 253.064 185.307 259.875C159.743 265.715 128.718 272.633 123.911 274.094C116.034 276.495 89.5345 283.354 82.4566 283.018C75.3788 282.683 31.4479 302.915 31.4479 302.915L35.3214 309.985C40.545 306.74 80.4103 296.005 88.3437 295.106C96.2771 294.206 145.633 286.645 160.333 286.687C171.08 286.728 202.885 277.43 219.17 272.438C225.816 274.404 231.114 275.392 233.836 274.698C246.102 271.57 319.272 286.627 326.566 290.153C333.86 293.679 381.648 304.702 388.967 311.071L412.009 298.447L381.689 243.107C381.689 243.107 325.51 232.399 296.443 224.7Z" fill="#7A5F4C"/>
    <g style="mix-blend-mode:multiply" opacity="0.5">
        <path d="M296.443 224.7C284.548 221.543 231.176 204.241 226.76 199.943C219.794 193.157 205.437 165.358 200.406 161.266C198.945 160.067 191.194 152.142 191.194 152.142C191.194 152.142 184.607 132.624 180.797 127.32C177.409 122.535 151.685 108.523 143.544 100.628C143.491 100.555 143.41 100.508 143.321 100.495C143.232 100.482 143.142 100.505 143.07 100.558C142.998 100.612 142.95 100.692 142.937 100.781C142.924 100.87 142.947 100.961 143 101.033C145.641 105.852 151.203 115.291 155.205 117.717C160.674 120.987 175.704 129.153 175.638 131.326C175.572 133.499 179.253 153.682 180.82 157.059C182.947 161.639 194.193 168.883 195.484 171.24C196.775 173.597 207.717 204.753 209.654 208.288C211.591 211.823 220.026 226.521 222.646 227.108C225.266 227.695 254.335 233.216 257.507 237.607C260.679 241.997 234.893 243.868 228.509 242.004C222.126 240.139 167.168 230.011 160.913 223.487C154.658 216.964 130.129 204.351 105.899 203.47C81.6701 202.588 40.9641 199.597 35.7023 195.585C30.4405 191.574 8.89206 194.188 3.95305 190.766C-0.985966 187.344 -37.3536 177.394 -37.3536 177.394L-28.3153 193.891C-28.3153 193.891 -1.32578 206.297 1.97892 210.232C5.28363 214.167 25.8355 209.035 32.8366 211.327C39.8377 213.619 80.9525 223.649 86.9085 226.131C92.8644 228.613 145.472 244.939 151.391 245.955C154.087 246.416 168.853 253.064 185.307 259.875C159.743 265.715 128.718 272.633 123.911 274.094C116.034 276.495 89.5345 283.354 82.4566 283.018C75.3788 282.683 31.4479 302.915 31.4479 302.915L35.3214 309.985C40.545 306.74 80.4103 296.005 88.3437 295.106C96.2771 294.206 145.633 286.645 160.333 286.687C171.08 286.728 202.885 277.43 219.17 272.438C225.816 274.404 231.114 275.392 233.836 274.698C246.102 271.57 319.272 286.627 326.566 290.153C333.86 293.679 381.648 304.702 388.967 311.071L412.009 298.447L381.689 243.107C381.689 243.107 325.51 232.399 296.443 224.7Z" fill="#7A5F4C"/>
    </g>
    <g style="mix-blend-mode:multiply" opacity="0.35">
        <path d="M205.333 184.603C202.923 180.692 200.349 175.982 196.423 173.345C199.411 180.938 207.992 205.17 209.686 208.263C211.623 211.798 220.059 226.495 222.678 227.082C224.84 227.56 244.959 231.398 253.743 235.196C252.4 234.031 250.477 233.499 248.92 232.545C246.766 231.228 244.922 229.442 242.997 227.831C240.803 226.007 238.471 224.351 235.727 223.495C233.518 222.805 231.199 222.544 229.017 221.748C220.061 218.489 214.653 209.862 212.231 201.024C210.747 195.242 208.423 189.71 205.333 184.603Z" fill="#7A5F4C"/>
    </g>
    <g style="mix-blend-mode:multiply" opacity="0.35">
        <path d="M162.388 244.886C154.161 239.657 145.252 235.714 136.181 232.189C121.286 226.408 105.58 220.237 89.5969 218.706C82.0534 217.982 74.7486 217.289 67.4385 215.173C59.8795 212.995 52.5057 210.624 44.7933 209.004C40.4967 208.15 36.2518 207.054 32.0787 205.721C28.9724 204.612 25.6949 204.058 22.3965 204.086C15.8267 204.231 9.56424 205.831 3.22891 203.174C0.046515 201.853 -2.13298 199.539 -4.84919 197.504C-7.54821 195.487 -10.5085 193.847 -13.6491 192.627C-19.1997 190.452 -25.0853 189.44 -31.0135 188.896L-28.2891 193.869C-28.2891 193.869 -1.29953 206.275 2.00518 210.21C5.30988 214.144 25.8617 209.012 32.8628 211.305C39.8639 213.597 80.9788 223.627 86.9348 226.109C92.8907 228.591 145.499 244.917 151.417 245.933C154.011 246.373 167.83 252.568 183.55 259.114C183.601 258.733 183.765 258.375 184.023 258.089C181.289 255.267 177.575 253.716 174.063 251.948C169.999 249.9 166.229 247.324 162.388 244.886Z" fill="#7A5F4C"/>
    </g>
    <g style="mix-blend-mode:multiply" opacity="0.35">
        <path d="M298.338 225.194C295.847 228.673 293.308 231.841 291.95 236.186C290.592 240.53 289.431 245.387 286.914 249.363C281.175 258.352 269.969 259.528 260.306 260.234C249.791 261.008 239.727 264.086 229.332 265.499C220.059 266.749 210.58 265.623 201.678 268.922C192.335 272.479 182.709 275.239 172.901 277.175C168.242 278.057 163.553 278.721 158.833 279.167C153.671 279.659 148.431 279.42 143.292 280.022C133.575 281.163 124.637 285.792 114.833 286.522C109.721 286.909 104.555 285.672 99.5027 286.755C94.8626 287.765 90.508 289.814 85.7873 290.44C76.3521 291.618 67.5154 293.441 58.5668 296.766C50.2091 299.966 42.0255 303.604 34.0497 307.663L35.3215 309.985C40.5451 306.74 80.4104 296.005 88.3438 295.106C96.2772 294.206 145.633 286.645 160.333 286.687C171.08 286.728 202.885 277.43 219.17 272.438C225.816 274.404 231.114 275.392 233.836 274.698C246.102 271.57 319.272 286.627 326.566 290.153C333.86 293.679 381.648 304.702 388.967 311.071L412.009 298.447L381.689 243.107C381.689 243.107 327.888 232.851 298.338 225.194Z" fill="#7A5F4C"/>
    </g>
    <g style="mix-blend-mode:multiply" opacity="0.5">
        <path d="M298.164 225.144C297.523 219.038 296.385 206.922 296.651 199.928C297.004 190.282 293.846 179.695 290.169 173.123C286.491 166.55 281.549 158.48 281.549 158.48C281.549 158.48 280.839 167.908 280.569 175.441C280.299 182.973 282.333 193.831 287.057 202.243C290.386 208.179 294.743 218.983 297.032 224.853L296.443 224.701C295.24 224.379 293.614 223.914 291.659 223.338C288.186 216.424 280.712 201.162 277.663 192.031C273.628 179.956 264.822 168.342 257.224 161.926C249.626 155.51 239.792 147.838 239.792 147.838C239.792 147.838 243.29 159.816 246.447 169.24C249.603 178.664 257.152 191.143 266.886 199.345C273.8 205.171 284.293 216.619 289.817 222.785C271.373 217.225 230.595 203.686 226.751 199.955C220.819 194.174 209.521 173.148 203.198 164.516C204.404 158.999 207.375 145.995 210.011 139.006C213.412 129.972 213.775 118.934 212.375 111.528C210.976 104.121 208.852 94.9048 208.852 94.9048C208.852 94.9048 205.199 103.617 202.537 110.683C199.874 117.749 198.369 128.677 200.172 138.161C201.508 145.143 202.208 157.536 202.496 163.583C201.879 162.744 201.176 161.971 200.398 161.278C198.937 160.079 191.186 152.154 191.186 152.154C191.186 152.154 184.598 132.637 180.788 127.332C179.456 125.473 174.739 122.22 169.03 118.454C167.564 114.661 164.826 107.314 163.808 102.885C162.3 96.9696 159.321 91.532 155.148 87.0773C151.691 83.5634 147.211 79.3152 147.211 79.3152C147.211 79.3152 148.374 85.3807 149.486 90.1794C150.994 96.0943 153.973 101.532 158.147 105.987C160.938 108.831 164.915 114.006 167.479 117.427C158.767 111.76 148.273 105.191 143.59 100.641C143.536 100.569 143.456 100.521 143.367 100.508C143.278 100.495 143.187 100.518 143.115 100.572C143.043 100.625 142.995 100.706 142.982 100.795C142.969 100.884 142.992 100.974 143.046 101.046C145.686 105.866 151.248 115.304 155.251 117.731C160.719 121.001 175.749 129.166 175.683 131.34C175.688 131.47 175.698 131.656 175.713 131.898C173.757 131.192 171.131 130.034 169.96 128.554C167.983 126.037 148.833 124.556 141.148 123.504C133.463 122.452 126.998 122.677 124.706 124.086C122.447 125.324 120.048 126.286 117.559 126.952C119.879 128.074 122.055 129.472 124.039 131.116C126.048 132.896 132.38 134.344 140.106 134.745C147.833 135.146 166.914 137.285 169.328 135.189C170.807 133.904 173.747 133.258 175.816 132.952C176.489 138.29 179.487 154.151 180.858 157.115C182.985 161.695 194.231 168.939 195.522 171.296C196.048 172.256 198.175 177.985 200.643 184.683C197.914 183.03 194.064 180.337 192.735 177.618C190.592 173.246 162.575 164.934 151.517 160.912C140.458 156.89 130.745 155.156 126.868 156.469C121.74 158.198 115.319 158.46 115.319 158.46C115.319 158.46 120.43 162.363 123.666 166.703C126.074 169.98 135.04 174.167 146.405 177.225C157.77 180.282 185.471 189.526 189.742 187.186C192.659 185.588 198.052 185.743 201.183 186.004C204.659 195.467 208.635 206.303 209.73 208.301C211.666 211.836 220.102 226.533 222.721 227.12C225.341 227.707 254.411 233.228 257.582 237.619C260.754 242.009 234.969 243.881 228.585 242.016C222.201 240.152 167.244 230.023 160.988 223.5C157.074 219.417 146.01 212.939 132.303 208.46C130.877 205.633 128.8 200.85 129.178 197.625C129.745 192.787 110.699 170.621 103.576 161.256C96.4533 151.891 89.2134 145.164 85.2493 144.164C79.9985 142.843 74.4581 139.582 74.4581 139.582C74.4581 139.582 76.6398 145.633 76.9748 151.026C77.2275 155.109 82.4964 163.467 90.3947 172.193C98.293 180.918 116.564 203.724 121.426 204.056C123.82 204.23 126.849 205.887 129.264 207.513C121.688 205.191 113.85 203.826 105.935 203.45C91.6972 202.924 71.7773 201.674 56.6942 199.926C53.8967 195.407 47.7468 185.287 45.0658 179.149C41.5453 171.074 34.7528 163.611 29.1174 159.659C23.482 155.707 16.2261 151.034 16.2261 151.034C16.2261 151.034 19.3813 159.072 22.1597 165.401C24.9381 171.731 30.895 179.835 38.1141 184.888C43.3232 188.538 51.4523 195.965 55.5783 199.832C45.5516 198.631 37.8525 197.203 35.7601 195.607C34.2433 194.447 31.3614 193.843 27.9175 193.485C23.7855 189.215 15.045 180.001 10.8145 174.153C5.16008 166.335 -3.84897 159.972 -10.7939 157.013C-17.7389 154.054 -26.6453 150.745 -26.6453 150.745C-26.6453 150.745 -21.4014 158.597 -16.9683 164.717C-12.5352 170.836 -4.26108 178.123 4.66638 181.834C10.7785 184.391 20.5228 189.999 26.0272 193.264C17.7531 192.619 7.2565 192.993 3.96729 190.75C-0.971724 187.328 -37.3394 177.379 -37.3394 177.379L-28.3011 193.876C-28.3011 193.876 -1.31154 206.282 1.99317 210.217C4.17694 212.804 13.8525 211.463 22.1983 210.897C14.5975 212.166 3.98575 214.916 -1.48572 216.045C-9.90756 217.786 -16.6233 220.447 -18.5068 222.727C-20.4095 224.879 -22.5667 226.792 -24.931 228.423C-22.0834 228.736 -19.2839 229.391 -16.5929 230.373C-13.8216 231.475 -6.61619 230.645 1.59521 228.183C9.80661 225.722 30.6453 220.862 32.4018 217.762C33.4984 215.821 36.4695 214.002 38.5183 212.917C52.0298 216.607 81.9342 224.015 86.9404 226.106C89.9249 227.358 104.733 232.099 119.452 236.636C111.536 238.422 95.8662 241.768 86.664 242.504C73.973 243.529 60.5885 249.299 52.5432 255.139C44.4979 260.98 34.689 268.69 34.689 268.69C34.689 268.69 47.1519 268.159 57.0639 267.347C66.9758 266.536 80.8895 262.206 91.1878 254.718C93.927 252.727 97.5461 250.468 101.383 248.159C102.239 249.069 103.027 250.04 103.741 251.065C105.428 253.488 111.804 256.667 119.941 259.088C128.077 261.509 147.887 268.726 151.011 267.114C152.509 266.339 154.855 266.218 156.909 266.303C148.16 268.285 140.138 270.129 134.115 271.537C130.16 270.135 123.34 267.628 119.52 265.646C114.042 262.956 107.971 261.699 101.876 261.992C96.9576 262.327 90.8194 262.994 90.8194 262.994C90.8194 262.994 96.1893 266.042 100.565 268.31C106.046 270.997 112.118 272.253 118.215 271.96C122.597 271.795 126.985 271.869 131.359 272.182C127.699 273.053 125.078 273.708 123.955 274.048C116.078 276.448 89.5776 283.307 82.4998 282.972C80.4123 282.867 75.1007 284.567 68.6328 287.023C65.8598 285.555 62.3063 283.319 60.9019 280.909C58.4379 276.706 29.9034 270.47 18.5546 267.288C7.20579 264.107 -2.61465 263.114 -6.34977 264.686C-11.3278 266.785 -17.7216 267.531 -17.7216 267.531C-17.7216 267.531 -12.3374 271.038 -8.8217 275.148C-6.14847 278.28 3.07988 281.757 14.6386 283.965C26.1974 286.174 54.5219 293.383 58.6008 290.719C60.0141 289.907 61.572 289.379 63.1874 289.164C48.5737 295.025 31.4477 302.915 31.4477 302.915L35.3212 309.985C40.5448 306.74 80.4102 296.005 88.3435 295.106C89.4751 294.976 91.4434 294.71 94.0543 294.344C92.4329 295.439 89.0713 297.511 86.7197 297.497C83.5173 297.482 70.4416 311.548 64.8429 316.89C59.2442 322.233 55.384 327.435 55.0277 330.112C54.5935 332.651 53.8549 335.129 52.8277 337.491C55.1521 336.379 57.6022 335.551 60.1249 335.025C62.7743 334.562 67.8441 330.505 72.9658 324.712C78.0875 318.918 91.6337 305.291 91.499 302.11C91.3913 299.564 93.6768 295.738 94.608 294.278C105.375 292.791 125.943 289.826 141.989 288.075C135.625 291.308 125.399 296.314 118.902 298.563C108.921 302.017 99.3658 309.435 94.1122 315.799C88.8585 322.163 82.5655 330.391 82.5655 330.391C82.5655 330.391 92.4669 327.379 100.26 324.672C108.053 321.964 118.339 315.586 125.056 307.432C129.973 301.46 139.828 292.269 144.749 287.772C151.269 287.088 156.806 286.667 160.345 286.681C170.012 286.708 196.605 279.224 213.718 274.092C212.007 276.408 209.235 279.681 206.668 280.659C202.551 282.217 192.722 306.684 188.192 316.312C183.663 325.941 181.306 334.502 182.139 338.105C182.837 341.574 183.112 345.114 182.959 348.649C185.389 346.078 188.12 343.81 191.093 341.894C194.257 339.992 198.773 332.324 202.456 322.339C206.14 312.355 216.82 288.241 215.057 284.213C213.846 281.429 214.47 276.514 214.973 273.741L218.335 272.719C222.301 279.593 230.403 293.99 233.907 302.748C238.639 314.573 248.092 325.618 256.065 331.614C264.038 337.61 274.293 344.653 274.293 344.653C274.293 344.653 270.103 332.908 266.404 323.697C262.706 314.486 254.446 302.458 244.244 294.841C236.965 289.399 225.735 278.493 219.904 272.687C226.214 274.515 231.229 275.406 233.853 274.742C246.119 271.614 319.288 286.671 326.582 290.197C333.876 293.723 381.664 304.747 388.984 311.116L412.032 298.488L381.689 243.107C381.689 243.107 327.666 232.811 298.164 225.144ZM31.1585 210.921C31.7465 210.99 32.3268 211.113 32.8921 211.289C33.2939 211.421 33.8041 211.555 34.428 211.757C33.3034 211.638 32.2021 211.357 31.1585 210.921V210.921ZM159.378 265.747C157.431 264.515 154.374 262.361 153.404 260.241C151.946 257.049 131.897 250.515 123.996 247.406C118.235 245.139 112.973 243.77 109.446 243.527C114.096 240.926 118.39 238.627 121.17 237.173C135.129 241.467 148.597 245.441 151.423 245.93C154.119 246.391 168.884 253.039 185.339 259.85C176.898 261.778 167.868 263.823 159.378 265.747V265.747Z" fill="#89786D"/>
    </g>
    <g clip-path="url(#clip0_1030_692)">
        <path d="M337.319 54.2205C337.953 57.8 339.017 61.2904 340.487 64.6161C342.143 68.0335 341.675 77.1769 339.24 87.8139C336.805 98.451 332.381 125.187 328.593 127.661C324.804 130.136 321.787 138.615 321.787 138.615C321.787 138.615 322.006 129.63 319.344 125.979C316.683 122.328 322.036 95.7578 323.549 84.9547C325.061 74.1517 327.867 65.4308 330.627 62.8206C333.197 60.2333 335.444 57.3457 337.319 54.2205V54.2205Z" fill="#3F6314"/>
        <path d="M336.449 58.9731C332.774 83.6496 328.222 108.477 322.883 132.852C326.543 108.168 331.111 83.3478 336.449 58.9731Z" fill="#5C7C2F"/>
        <g style="mix-blend-mode:multiply" opacity="0.3">
            <path d="M327.927 100.322C324.381 97.3571 324.789 91.0276 324.388 86.9086C324.267 85.6186 324.071 84.3437 323.851 83.0687C323.753 83.6949 323.655 84.321 323.571 84.9547C322.059 95.7577 316.705 122.328 319.367 125.979C322.029 129.63 321.81 138.615 321.81 138.615C321.81 138.615 324.834 130.136 328.615 127.661C331.64 125.662 335.156 107.821 337.69 95.4334C335.829 98.7301 332.094 103.792 327.927 100.322Z" fill="#3F6314"/>
        </g>
        <path d="M375.113 31C375.113 31 374.297 44.9866 373.208 56.0989C372.119 67.2112 366.992 82.7594 358.379 94.1886C349.766 105.618 336.154 131.071 336.154 131.071C336.154 131.071 343.331 103.121 344.715 88.8927C346.098 74.6647 352.828 59.7351 359.543 50.803C366.258 41.8709 375.113 31 375.113 31Z" fill="#3F6314"/>
        <path d="M372.542 37.684C362.263 66.9396 351.016 95.8307 338.801 124.357C349.07 95.0913 360.317 66.2003 372.542 37.684Z" fill="#5C7C2F"/>
        <g style="mix-blend-mode:multiply" opacity="0.3">
            <path d="M365.124 80.2473C362.53 83.2121 358.318 84.8869 355.604 80.9564C352.768 76.8223 354.091 69.9875 353.932 65.2875C353.864 63.4845 353.849 61.689 353.857 59.8936C349.388 68.3127 345.69 78.7536 344.715 88.8927C343.331 103.121 336.154 131.071 336.154 131.071C336.154 131.071 349.766 105.618 358.379 94.1886C362.687 88.3136 366.135 81.8565 368.618 75.0117C367.594 76.8464 366.426 78.597 365.124 80.2473V80.2473Z" fill="#3F6314"/>
        </g>
        <path d="M325.069 274.973C321.424 274.837 317.775 275.138 314.202 275.871C310.505 276.761 301.627 274.362 291.706 269.753C281.784 265.143 256.49 255.163 254.864 250.945C253.238 246.728 245.555 242.021 245.555 242.021C245.555 242.021 254.32 244.133 258.464 242.308C262.608 240.482 287.539 251.315 297.785 255.072C308.032 258.829 316.032 263.416 318.006 266.66C320.018 269.703 322.389 272.494 325.069 274.973V274.973Z" fill="#3F6314"/>
        <path d="M320.592 273.117C297.15 264.321 273.761 254.635 250.977 244.269C274.419 253.058 297.808 262.759 320.592 273.117Z" fill="#5C7C2F"/>
        <g style="mix-blend-mode:multiply" opacity="0.3">
            <path d="M281.8 256.083C285.46 253.246 291.577 254.982 295.706 255.464C296.999 255.615 298.292 255.691 299.585 255.743C298.995 255.517 298.406 255.291 297.793 255.072C287.516 251.3 262.585 240.474 258.471 242.308C254.358 244.141 245.563 242.021 245.563 242.021C245.563 242.021 253.246 246.721 254.872 250.945C256.187 254.355 272.96 261.507 284.582 266.584C281.724 264.117 277.542 259.402 281.8 256.083Z" fill="#3F6314"/>
        </g>
        <path d="M17.9728 157.709C17.9728 157.709 29.2173 157.596 38.1706 157.852C47.1239 158.109 59.8657 161.338 69.4844 167.577C79.1031 173.816 100.239 183.261 100.239 183.261C100.239 183.261 77.4697 179.074 65.9984 178.734C54.527 178.395 42.2087 173.868 34.6846 169.01C27.1605 164.152 17.9728 157.709 17.9728 157.709Z" fill="#3F6314"/>
        <path d="M23.4627 159.414C47.3658 165.977 71.3068 173.408 94.7184 181.548C70.8153 174.985 46.8743 167.547 23.4627 159.414V159.414Z" fill="#5C7C2F"/>
        <g style="mix-blend-mode:multiply" opacity="0.3">
            <path d="M57.9676 162.967C60.4857 164.868 62.0586 168.15 59.0641 170.511C55.9032 173.001 50.3603 172.314 46.6096 172.707C45.1653 172.857 43.721 172.971 42.2842 173.069C49.2714 176.162 57.8542 178.531 66.0135 178.757C77.4848 179.074 100.254 183.283 100.254 183.283C100.254 183.283 79.1409 173.793 69.4843 167.577C64.5439 164.465 59.1841 162.072 53.5666 160.47C55.0992 161.182 56.5711 162.017 57.9676 162.967V162.967Z" fill="#3F6314"/>
        </g>
        <path d="M47.88 122.75C47.88 122.75 61.1209 127.427 71.5185 131.554C81.9161 135.681 95.4594 144.922 104.072 156.351C112.685 167.78 133.413 187.893 133.413 187.893C133.413 187.893 108.458 173.25 95.1721 167.977C81.8858 162.703 69.3558 152.096 62.656 143.179C55.9561 134.262 47.88 122.75 47.88 122.75Z" fill="#3F6314"/>
        <path d="M53.5893 127.103C78.9065 145.083 103.609 163.89 127.696 183.525C102.379 165.545 77.6764 146.738 53.5893 127.103Z" fill="#5C7C2F"/>
        <g style="mix-blend-mode:multiply" opacity="0.3">
            <path d="M92.5179 146.016C94.6579 149.32 95.0889 153.839 90.5594 155.333C85.7954 156.902 79.5795 153.726 75.0121 152.587C73.2502 152.142 71.5185 151.659 69.7944 151.153C76.6531 157.777 85.6744 164.22 95.1721 167.977C108.496 173.257 133.413 187.893 133.413 187.893C133.413 187.893 112.685 167.758 104.095 156.351C99.6349 150.59 94.3743 145.491 88.4723 141.21C89.9492 142.7 91.3022 144.307 92.5179 146.016V146.016Z" fill="#3F6314"/>
        </g>
        <path d="M378.501 163.986C376.326 165.112 374.295 166.495 372.452 168.105C370.591 169.855 364.61 171.394 357.29 171.982C349.97 172.571 331.89 175.121 329.538 173.197C327.186 171.273 321.137 171.07 321.137 171.07C321.137 171.07 326.952 169.402 328.759 166.966C330.566 164.529 348.722 162.605 355.982 161.391C363.241 160.176 369.404 160.221 371.635 161.459C373.812 162.576 376.118 163.425 378.501 163.986V163.986Z" fill="#3F6314"/>
        <path d="M375.272 164.363C358.636 166.981 341.796 169.063 325.054 170.564C341.69 167.946 358.53 165.864 375.272 164.363Z" fill="#5C7C2F"/>
        <g style="mix-blend-mode:multiply" opacity="0.3">
            <path d="M346.983 167.252C348.178 164.386 352.322 163.375 354.893 162.288C355.694 161.949 356.481 161.572 357.252 161.172L355.982 161.368C348.73 162.583 330.581 164.506 328.759 166.943C326.937 169.38 321.137 171.047 321.137 171.047C321.137 171.047 327.186 171.251 329.538 173.174C331.436 174.728 343.603 173.363 352.072 172.473C349.592 171.975 345.584 170.609 346.983 167.252Z" fill="#3F6314"/>
        </g>
        <path d="M103.082 283C104.008 279.931 104.561 276.763 104.73 273.562C104.791 270.22 108.814 263.204 114.969 255.796C121.125 248.388 135.288 229.113 139.25 228.638C143.213 228.163 148.952 222.708 148.952 222.708C148.952 222.708 145.171 229.686 145.829 233.617C146.487 237.547 131.651 256.332 126.168 264.238C120.686 272.144 114.977 277.893 111.763 278.851C108.712 279.88 105.797 281.273 103.082 283V283Z" fill="#3F6314"/>
        <path d="M105.66 279.613C118.402 261.65 131.9 243.922 145.822 226.85C133.08 244.812 119.582 262.541 105.66 279.613V279.613Z" fill="#5C7C2F"/>
        <g style="mix-blend-mode:multiply" opacity="0.3">
            <path d="M128.853 250.44C130.463 254.212 127.62 259.003 126.282 262.405C125.866 263.469 125.526 264.555 125.178 265.641C125.503 265.189 125.828 264.736 126.153 264.268C131.651 256.362 146.464 237.585 145.814 233.647C145.164 229.709 148.937 222.738 148.937 222.738C148.937 222.738 143.205 228.223 139.235 228.668C136.029 229.023 126.168 241.681 119.257 250.44C122.017 248.569 126.97 246.057 128.853 250.44Z" fill="#3F6314"/>
        </g>
        <path d="M272.831 283C272.831 283 263.757 279.341 256.702 276.143C249.646 272.944 240.497 266.101 234.878 257.894C229.26 249.686 215.512 235.058 215.512 235.058C215.512 235.058 232.345 246.019 241.427 250.101C250.508 254.182 258.857 261.945 263.25 268.35C267.644 274.754 272.831 283 272.831 283Z" fill="#3F6314"/>
        <path d="M269.005 279.801C252.074 266.554 235.385 252.643 219.354 238.309C236.292 251.557 252.974 265.513 269.005 279.839V279.801Z" fill="#5C7C2F"/>
        <g style="mix-blend-mode:multiply" opacity="0.3">
            <path d="M242.576 265.438C241.192 263.069 241.064 259.923 244.232 259.025C247.59 258.09 251.794 260.489 254.94 261.424C256.15 261.786 257.337 262.179 258.524 262.586C253.664 257.387 247.863 253.15 241.427 250.101C232.352 246.019 215.512 235.058 215.512 235.058C215.512 235.058 229.267 249.686 234.878 257.894C237.796 262.032 241.286 265.738 245.245 268.9C244.261 267.822 243.368 266.663 242.576 265.438V265.438Z" fill="#3F6314"/>
        </g>
        <path d="M42.5035 271.601C42.5035 271.601 47.3583 266.252 50.0049 260.783C52.0164 256.649 61.068 250.221 73.0233 244.503C84.9787 238.785 113.744 222.889 118.947 224.609C124.149 226.329 134.456 222.784 134.456 222.784C134.456 222.784 125.745 229.332 124.27 234.605C122.796 239.878 93.4934 254.785 82.0825 261.492C70.6716 268.199 60.2362 272.091 55.699 271.435C49.6495 270.575 42.5035 271.601 42.5035 271.601Z" fill="#3F6314"/>
        <path d="M47.6759 268.847C74.0165 253.699 100.851 239.453 128.18 226.111C101.849 241.269 75.0147 255.515 47.6759 268.847Z" fill="#5C7C2F"/>
        <g style="mix-blend-mode:multiply" opacity="0.3">
            <path d="M93.4177 245.793C93.2665 251.391 86.9448 255.766 83.3151 259.244C82.1808 260.33 81.1145 261.469 80.0786 262.639L82.0825 261.492C93.4934 254.785 122.803 239.871 124.27 234.605C125.737 229.339 134.456 222.784 134.456 222.784C134.456 222.784 124.149 226.337 118.947 224.609C114.742 223.221 95.1419 233.345 81.47 240.293C85.9466 239.531 93.5992 239.252 93.4177 245.793Z" fill="#3F6314"/>
        </g>
        <path d="M408.008 211.226C408.008 211.226 400.771 211.226 394.925 212.894C390.502 214.168 379.643 211.747 367.408 206.692C355.173 201.638 324.071 190.925 321.878 185.909C319.685 180.892 310.149 175.619 310.149 175.619C310.149 175.619 320.857 177.708 325.764 175.279C330.672 172.85 361.388 184.626 374.017 188.617C386.645 192.608 396.506 197.738 399.069 201.547C402.457 206.594 408.008 211.226 408.008 211.226Z" fill="#3F6314"/>
        <path d="M402.502 209.25C373.601 199.825 345.042 189.432 316.826 178.07C345.738 187.485 374.297 197.878 402.502 209.25Z" fill="#5C7C2F"/>
        <g style="mix-blend-mode:multiply" opacity="0.3">
            <path d="M354.734 190.692C359.006 187.063 366.493 188.836 371.506 189.183C373.079 189.296 374.644 189.326 376.21 189.311L374.017 188.594C361.388 184.604 330.68 172.827 325.764 175.256C320.849 177.686 310.149 175.596 310.149 175.596C310.149 175.596 319.685 180.877 321.878 185.886C323.655 189.937 344.299 197.715 358.613 203.237C355.044 200.408 349.736 194.916 354.734 190.692Z" fill="#3F6314"/>
        </g>
        <path d="M-1.01514 201.125C-1.01514 201.125 57.6727 186.98 61.1738 185.848C64.675 184.717 81.78 179.624 94.5899 181.601C107.4 183.578 144.113 181.888 149.194 181.601C154.276 181.314 207.315 178.87 225.222 181.601C243.128 184.332 276.786 171.477 286.609 165.14C296.432 158.803 352.775 112.83 356.556 110.295C360.337 107.76 377.079 105.769 377.079 105.769V127.02C377.079 127.02 359.203 130.204 353.154 135.975C347.104 141.746 313.635 183.585 313.635 183.585C308.917 190.035 291.207 202.128 288.719 200.982C286.231 199.835 263.273 203.614 261.708 204.754C260.142 205.893 193.802 207.017 180.848 208.526C167.895 210.034 133.76 208.526 133.76 208.526C133.76 208.526 194.709 218.71 204.555 220.219C214.4 221.728 233.23 228.344 245.933 230.313C258.637 232.282 294.912 230.403 313.635 231.912C324.577 232.787 330.982 233.541 334.415 234.017C334.515 234.017 334.612 234.056 334.683 234.127C334.754 234.198 334.793 234.294 334.793 234.394C334.793 234.494 334.754 234.59 334.683 234.661C334.612 234.731 334.515 234.771 334.415 234.771C323.254 235.526 288.235 237.789 282.503 239.086C275.697 240.595 248.792 243.99 242.947 243.236C237.101 242.481 192.842 233.428 184.917 233.051C176.992 232.674 108.957 218.717 98.7111 218.717C88.4647 218.717 71.2841 218.717 61.1738 219.472C51.0636 220.226 32.4084 231.127 23.1829 235.261C13.9574 239.396 -1.01514 243.288 -1.01514 243.288V201.125Z" fill="#7A5F4C"/>
        <g style="mix-blend-mode:multiply" opacity="0.35">
            <path d="M358.931 127.775C354.636 130.264 349.501 132.052 346.129 135.779C342.756 139.505 339.444 143.7 336.049 147.593C332.653 151.485 329.288 155.416 325.628 159.052C322.603 162.07 319.072 164.521 315.798 167.267C312.017 170.421 309.68 173.831 306.95 177.829C304.935 180.733 302.301 183.157 299.237 184.928C292.061 189.236 283.758 189.854 275.644 190.812C266.691 191.883 258.312 195.12 249.321 196.048C229.539 198.085 209.788 200.393 190.021 202.717C179.744 203.931 169.528 205.629 159.259 206.881C153.535 207.583 147.765 207.854 142.131 208.827C153.089 209.174 171.956 209.582 180.848 208.526C193.802 207.017 260.142 205.885 261.708 204.754C263.273 203.622 286.231 199.85 288.719 200.982C291.207 202.113 308.916 190.035 313.635 183.585C313.635 183.585 347.104 141.754 353.154 135.975C359.203 130.196 377.079 127.02 377.079 127.02V121.4C370.698 122.432 364.553 124.591 358.931 127.775V127.775Z" fill="#7A5F4C"/>
        </g>
        <g style="mix-blend-mode:multiply" opacity="0.35">
            <path d="M334.43 233.972C331.406 233.557 326.112 232.923 317.409 232.176C306.913 232.87 296.507 234.605 286.065 235.948C273.534 237.547 260.959 237.796 248.338 237.608C242.574 237.645 236.822 237.089 231.173 235.948C225.585 234.703 220.155 232.832 214.537 231.701C203.784 229.536 192.705 229.619 181.907 227.657C171.109 225.696 161.399 220.038 150.51 219.057C144.725 218.529 138.895 218.68 133.118 217.925C127.711 217.209 122.357 216.047 117.026 214.908C105.403 212.418 94.2117 209.838 82.2942 211.49C71.7454 212.946 61.1965 214.206 50.625 215.526C39.6149 216.907 29.4517 219.381 19.5078 224.3C12.9441 227.529 5.73764 229.158 -1 231.889V243.311C-1 243.311 14.0179 239.433 23.1981 235.284C32.3782 231.135 51.056 220.196 61.1738 219.442C71.2917 218.687 88.4874 218.687 98.7111 218.687C108.935 218.687 176.962 232.644 184.917 233.021C192.872 233.398 237.094 242.451 242.947 243.205C248.799 243.96 275.667 240.565 282.503 239.056C288.235 237.789 323.254 235.458 334.415 234.741C334.517 234.743 334.616 234.704 334.69 234.634C334.764 234.563 334.806 234.466 334.808 234.364C334.81 234.262 334.772 234.163 334.701 234.09C334.63 234.016 334.533 233.974 334.43 233.972Z" fill="#7A5F4C"/>
        </g>
        <path d="M303.275 196.063C303.275 196.063 295.865 203.245 289.747 208.737C283.63 214.229 273.111 220.128 262.744 222.067C252.376 224.006 232.33 231.082 232.33 231.082C232.33 231.082 250.13 219.464 257.964 212.426C265.799 205.387 276.869 200.619 284.968 199.096C293.067 197.572 303.275 196.063 303.275 196.063Z" fill="#3F6314"/>
        <path d="M298.534 198.401C278.465 209.137 257.821 219.329 237.086 228.728C257.155 217.993 277.807 207.801 298.534 198.401Z" fill="#5C7C2F"/>
        <g style="mix-blend-mode:multiply" opacity="0.3">
            <path d="M273.345 217.842C270.457 218.167 267.296 216.982 267.825 213.512C268.339 209.861 272.461 206.813 274.707 204.18C275.579 203.174 276.461 202.184 277.353 201.208C270.744 203.569 263.53 207.417 257.964 212.426C250.13 219.464 232.33 231.082 232.33 231.082C232.33 231.082 252.384 224.006 262.744 222.067C268.013 221.015 273.106 219.22 277.867 216.733C276.392 217.221 274.88 217.592 273.345 217.842V217.842Z" fill="#3F6314"/>
        </g>
    </g>
    <defs>
        <clipPath id="clip0_1030_692">
            <rect width="409" height="252" fill="white" transform="translate(-1 31)"/>
        </clipPath>
    </defs>
</svg>
